<svg xmlns="http://www.w3.org/2000/svg" width="143" height="116" viewBox="0 0 143 116">
    <g fill="none" fill-rule="evenodd" stroke="#FFF" stroke-linecap="round" stroke-linejoin="round" stroke-width="2">
        <path d="M132 10l-50 9M61 22l-50 9M42.462 114.062h58.04M71.488 9.888V1.412M71.488 114.06V30.097M52.136 72.498c0 13.955-11.303 25.27-25.246 25.27-13.94 0-25.244-11.315-25.244-25.27h50.49z"/>
        <path d="M1.646 72.498l25.245-44.78 25.245 44.78M141.925 57.247c0 13.955-11.303 25.27-25.247 25.27-13.94 0-25.243-11.315-25.243-25.27h50.49zM91.434 57.247l25.245-44.78 25.245 44.78M81.909 19.992c0-5.59-4.527-10.121-10.112-10.121-5.586 0-10.113 4.531-10.113 10.12 0 5.59 4.527 10.122 10.113 10.122 5.585 0 10.112-4.531 10.112-10.121z"/>
    </g>
</svg>
