<svg xmlns="http://www.w3.org/2000/svg" width="32" height="32" viewBox="0 0 32 32">
    <path fill="none" fill-rule="evenodd" stroke="#90A8BC" d="M21.444 25.836a11.326 11.326 0 0 0 3.669-3.252h-2.52a18.972 18.972 0 0 1-1.15 3.252zM6.887 22.584a11.328 11.328 0 0 0 3.67 3.252 18.976 18.976 0 0 1-1.15-3.252h-2.52zM10.51 6.191a11.329 11.329 0 0 0-3.622 3.225H9.39a18.883 18.883 0 0 1 1.12-3.225zM16 5.383c-.864.94-1.636 2.261-2.203 4.033h4.406c-.567-1.772-1.34-3.094-2.203-4.033zM4.998 18.33H8.72a31.268 31.268 0 0 1-.002-4.663h-3.72a11.214 11.214 0 0 0 0 4.663zm7.988 0h6.028c.066-.743.1-1.52.1-2.331a27.3 27.3 0 0 0-.096-2.331h-6.036A27.3 27.3 0 0 0 12.886 16c0 .812.034 1.588.1 2.331zM16 26.571c.851-.955 1.612-2.266 2.176-3.987h-4.352c.564 1.721 1.325 3.032 2.176 3.986zm11.002-12.902h-3.72a31.268 31.268 0 0 1-.002 4.662h3.722a11.213 11.213 0 0 0 0-4.662zm-1.89-4.253a11.328 11.328 0 0 0-3.62-3.225 18.88 18.88 0 0 1 1.12 3.225h2.5zM16 .5C24.547.5 31.5 7.453 31.5 16S24.547 31.5 16 31.5.5 24.547.5 16 7.453.5 16 .5z" opacity=".3"/>
</svg>
