<svg xmlns="http://www.w3.org/2000/svg" width="30" height="30" viewBox="0 0 30 30">
    <path fill="#3294E4" fill-rule="evenodd" d="M19.315 25.922c.723-1.242 1.409-2.832 1.887-4.838h3.843a11.813 11.813 0 0 1-5.73 4.838zm-14.36-4.838h3.843c.478 2.006 1.164 3.596 1.887 4.838a11.815 11.815 0 0 1-5.73-4.838zM10.632 4.1c-.713 1.235-1.383 2.817-1.85 4.817H4.955a11.816 11.816 0 0 1 5.677-4.817zM15 3.669c.815.774 2.077 2.36 2.874 5.247h-5.747C12.923 6.03 14.185 4.443 15 3.67zM3.253 15c0-.976.122-1.924.347-2.831h4.662A30.306 30.306 0 0 0 8.132 15c0 1.006.048 1.948.133 2.831H3.6A11.726 11.726 0 0 1 3.253 15zm8.28 2.831A26.292 26.292 0 0 1 11.386 15c0-1.024.05-1.966.141-2.831h6.946A27.2 27.2 0 0 1 18.614 15c0 1.023-.053 1.964-.147 2.831h-6.934zM15 26.295c-.817-.803-2.056-2.402-2.85-5.21h5.7c-.794 2.807-2.033 4.407-2.85 5.21zM26.747 15c0 .976-.122 1.924-.347 2.831h-4.665c.085-.883.132-1.825.132-2.831s-.046-1.948-.129-2.831H26.4c.225.907.347 1.855.347 2.831zm-1.702-6.084h-3.827c-.467-2-1.137-3.582-1.85-4.817a11.815 11.815 0 0 1 5.677 4.817zM15 0C6.729 0 0 6.729 0 15s6.729 15 15 15 15-6.729 15-15S23.271 0 15 0z"/>
</svg>
