<svg xmlns="http://www.w3.org/2000/svg" width="69" height="74" viewBox="0 0 69 74">
    <g fill="none" fill-rule="evenodd" stroke="#FFF" stroke-width="3">
        <path d="M38 32L62 8M63 15V7h-8M34.988 72h12.08V56.508h-12.08z"/>
        <path d="M44.767 50.54v-3.786h12.08V72h-12.08"/>
        <path d="M54.546 41.675v-4.101h12.08V72h-12.08M26.935 68.557H2.2S5.077 50.77 6.227 44.46c1.15-6.311 7.478-9.18 14.38-9.18 6.903 0 12.08 2.869 14.381 9.18.575 1.721.575 4.016.575 4.016M32.687 15.484C32.687 8.037 27.28 2 20.607 2c-6.67 0-12.08 6.037-12.08 13.484s5.41 13.483 12.08 13.483c6.672 0 12.08-6.036 12.08-13.483zM8.701 13.215s15.99 1.45 19.988-7.751"/>
        <path d="M15.797 35.785s1.359 3.51 4.81 3.51c3.452 0 4.66-3.51 4.66-3.51M18.69 39.295L17.156 58.23l3.452 3.442 3.45-3.442-1.725-18.935"/>
    </g>
</svg>
