<svg xmlns="http://www.w3.org/2000/svg" width="30" height="30" viewBox="0 0 30 30">
    <g fill="none" fill-rule="evenodd">
        <path fill="#3294E4" d="M15 23.586a8.585 8.585 0 1 1 0-17.172c2.377 0 4.529.967 6.083 2.528l4.535-4.536A14.95 14.95 0 0 0 15 0C6.715 0 0 6.715 0 15s6.715 15 15 15a14.95 14.95 0 0 0 10.618-4.406l-4.535-4.536A8.556 8.556 0 0 1 15 23.586"/>
        <path fill="#FFF" d="M30 15c0 4.136-1.674 7.88-4.382 10.594l-4.535-4.536A8.56 8.56 0 0 0 23.586 15a8.56 8.56 0 0 0-2.503-6.058l4.535-4.536A14.948 14.948 0 0 1 30 15"/>
    </g>
</svg>
