<svg xmlns="http://www.w3.org/2000/svg" width="100" height="86" viewBox="0 0 100 86">
    <defs>
        <linearGradient id="a" x1="0%" y1="50%" y2="50%">
            <stop offset="0%" stop-color="#2190FB"/>
            <stop offset="100%" stop-color="#24CAF9"/>
        </linearGradient>
    </defs>
    <path fill="url(#a)" fill-rule="evenodd" d="M152.312 97c-5.732.042-10.382 4.718-10.382 10.459v4.372h-17.566c-7.9 0-14.364 6.464-14.364 14.364v41.471c0 7.9 6.464 14.364 14.364 14.364h71.272c7.9 0 14.364-6.464 14.364-14.364v-41.47c0-7.9-6.464-14.365-14.364-14.365H178.07v-4.372c0-5.741-4.65-10.417-10.381-10.459h-15.377zm-5.083 10.459a5.166 5.166 0 0 1 5.16-5.161h15.222a5.167 5.167 0 0 1 5.16 5.16v4.373H147.23v-4.372z" transform="translate(-110 -97)"/>
</svg>
