<svg xmlns="http://www.w3.org/2000/svg" xmlns:xlink="http://www.w3.org/1999/xlink" width="36" height="36" viewBox="0 0 36 36">
    <defs>
        <path id="a" d="M0 0h30v27.9H0z"/>
    </defs>
    <g fill="none" fill-rule="evenodd">
        <path fill="#212121" d="M-828-464h1920V536H-828z"/>
        <g>
            <circle cx="18" cy="18" r="18" fill="#FFF"/>
            <g transform="translate(3 4)">
                <mask id="b" fill="#fff">
                    <use xlink:href="#a"/>
                </mask>
                <path fill="#246DD3" d="M7.8 25.65a.75.75 0 1 0 0 1.5.75.75 0 0 0 0-1.5m14.4 0a.75.75 0 1 0 0 1.5.75.75 0 0 0 0-1.5m-7.2.45a.9.9 0 1 0 0 1.8.9.9 0 0 0 0-1.8M7.8 2.25a.75.75 0 1 0 0-1.5.75.75 0 0 0 0 1.5m14.4 0a.75.75 0 1 0 0-1.5.75.75 0 0 0 0 1.5M3.9 19.5a.9.9 0 1 0 0 1.8.9.9 0 0 0 0-1.8m22.35 0a.9.9 0 1 0 .001 1.801.9.9 0 0 0-.001-1.801m0-13.05a.9.9 0 1 0 .002 1.802.9.9 0 0 0-.002-1.802M15 1.8A.9.9 0 1 0 15 0a.9.9 0 0 0 0 1.8M3.9 8.25a.9.9 0 1 0 0-1.8.9.9 0 0 0 0 1.8m25.35 4.95a.75.75 0 1 0 0 1.5.75.75 0 0 0 0-1.5m-28.5 0a.75.75 0 1 0 0 1.5.75.75 0 0 0 0-1.5m21.375-4.65a1.275 1.275 0 1 0 0 2.55 1.275 1.275 0 0 0 0-2.55m4.425 5.4a1.05 1.05 0 1 0-2.1 0 1.05 1.05 0 0 0 2.1 0m-6.3 8.1a1.05 1.05 0 1 0 0 2.1 1.05 1.05 0 0 0 0-2.1m-10.5 0a1.05 1.05 0 1 0 0 2.1 1.05 1.05 0 0 0 0-2.1M4.5 12.9a1.05 1.05 0 1 0 0 2.1 1.05 1.05 0 0 0 0-2.1m5.25-7.05a1.05 1.05 0 1 0 0-2.1 1.05 1.05 0 0 0 0 2.1m10.5 0a1.05 1.05 0 1 0 0-2.1 1.05 1.05 0 0 0 0 2.1m-5.175 15a1.274 1.274 0 1 0-.002 2.55 1.274 1.274 0 0 0 .002-2.55m0-13.8a1.275 1.275 0 1 0 0-2.55 1.275 1.275 0 0 0 0 2.55m7.05 9.75a1.275 1.275 0 1 0 0 2.55 1.275 1.275 0 0 0 0-2.55m-14.1 2.55a1.276 1.276 0 1 0-.001-2.55 1.276 1.276 0 0 0 0 2.55m0-8.25a1.276 1.276 0 1 0 0-2.55 1.276 1.276 0 0 0 0 2.55m7.426-1.275a2.025 2.025 0 1 0 4.05 0 2.025 2.025 0 0 0-4.05 0m-2.775 2.026a2.025 2.025 0 1 0 0-4.051 2.025 2.025 0 0 0 0 4.05M8.25 14.026a2.025 2.025 0 1 0 4.05 0 2.025 2.025 0 0 0-4.05 0m9.6 0a2.025 2.025 0 1 0 4.05 0 2.025 2.025 0 0 0-4.05 0m-.375 2.025a2.025 2.025 0 1 0 0 4.05 2.025 2.025 0 0 0 0-4.05M14.7 18.075a2.025 2.025 0 1 0-4.05 0 2.025 2.025 0 0 0 4.05 0" mask="url(#b)"/>
            </g>
        </g>
    </g>
</svg>
