<svg xmlns="http://www.w3.org/2000/svg" width="36" height="36" viewBox="0 0 36 36">
    <g fill="none" fill-rule="evenodd">
        <circle cx="18" cy="18" r="18" fill="#FFF"/>
        <path fill="#F8930F" d="M14.86 24.8H6V11h8.86a7.587 7.587 0 0 0-4.403 6.9 7.587 7.587 0 0 0 4.403 6.9zm6.28 0a7.587 7.587 0 0 0 4.403-6.9A7.586 7.586 0 0 0 21.14 11H30v13.8h-8.86zm-2.314-6.123a.817.817 0 0 1 .39.357.868.868 0 0 1 .084.526.841.841 0 0 1-.222.483.908.908 0 0 1-.507.262c-.216.044-.54.036-.972-.022l-.825-.113.236-1.83.824.111c.483.066.813.14.992.226zm.147-2.542c.162.072.28.173.355.3a.676.676 0 0 1 .08.437.654.654 0 0 1-.195.397.828.828 0 0 1-.455.213c-.194.034-.486.024-.876-.028l-.745-.102.195-1.514.744.1c.436.06.734.125.897.197zm1.255 2.307a2.63 2.63 0 0 0-.618-.333c.276-.057.503-.143.682-.263a1.48 1.48 0 0 0 .434-.437 1.37 1.37 0 0 0 .202-.567c.037-.281-.01-.552-.142-.81a1.565 1.565 0 0 0-.622-.637 2.181 2.181 0 0 0-.391-.17l.141-1.096-1.023-.14-.132 1.022-.658-.09.131-1.022-1.024-.139-.13 1.021-1.563-.211-.11.86.238.032c.158.021.264.05.317.088a.26.26 0 0 1 .104.137c.016.053.013.172-.011.355l-.447 3.465c-.022.181-.05.297-.079.345a.238.238 0 0 1-.135.103c-.06.021-.17.021-.328 0l-.238-.033-.39.822 1.84.25-.13 1.022 1.023.139.132-1.023.582.08.075.01-.13 1.023 1.021.138.143-1.108c.159-.008.316-.031.47-.07.371-.097.673-.271.9-.523.225-.24.367-.544.408-.87a1.521 1.521 0 0 0-.094-.777 1.401 1.401 0 0 0-.448-.593zM18 11c3.788 0 6.857 3.09 6.857 6.9 0 3.81-3.07 6.9-6.857 6.9-3.787 0-6.858-3.09-6.858-6.9 0-3.81 3.07-6.9 6.858-6.9z"/>
    </g>
</svg>
