<svg xmlns="http://www.w3.org/2000/svg" xmlns:xlink="http://www.w3.org/1999/xlink" width="36" height="36" viewBox="0 0 36 36">
    <defs>
        <path id="a" d="M0 .264h27.778v24.042H0z"/>
    </defs>
    <g fill="none" fill-rule="evenodd">
        <path fill="#212121" d="M-828-388h1920V612H-828z"/>
        <g>
            <circle cx="18" cy="18" r="18" fill="#FFF"/>
            <g transform="translate(4 6.43)">
                <mask id="b" fill="#fff">
                    <use xlink:href="#a"/>
                </mask>
                <path fill="#202020" d="M16.164 20.634l4.835-8.787 4.733-2.085-9.568 10.872zm-9.385-8.787l4.834 8.787L2.046 9.762l4.733 2.085zm2.074-10.72h10.072l2.79 1.538-3.309 2.098H9.371L6.063 2.665l2.79-1.538zm.701 4.499h8.67l1.997 5.844-6.332 11.508L7.556 11.47l1.998-5.844zm-2.724 5.3L1.118 8.409l4.192-5.2 3.417 2.167-1.897 5.55zm14.118 0l-1.897-5.55 3.417-2.166 4.192 5.2-5.712 2.516zm6.83-2.32c0-.01-.003-.019-.003-.029a.423.423 0 0 0-.071-.237c-.004-.005-.002-.012-.006-.018l-.008-.007c-.002-.002-.002-.006-.004-.009l-4.787-5.938a.441.441 0 0 0-.126-.105l-.002-.002L19.245.318a.432.432 0 0 0-.21-.055H8.743a.43.43 0 0 0-.209.055L5.007 2.26l-.002.002a.423.423 0 0 0-.126.105L.092 8.306l-.004.01-.009.006c-.003.006-.001.013-.005.018a.423.423 0 0 0-.071.237c0 .01-.004.018-.003.029.006.084.04.163.094.232.005.007.003.018.01.025l13.46 15.296c.007.007.016.01.022.016.007.006.01.016.018.022.014.012.03.018.045.028l.04.026.037.02a.433.433 0 0 0 .163.035c.056 0 .11-.013.163-.035.013-.006.023-.013.036-.02a.304.304 0 0 0 .04-.026c.015-.01.032-.016.046-.028.007-.006.01-.016.017-.022.007-.007.016-.009.022-.016L27.674 8.863c.006-.007.005-.018.01-.025a.427.427 0 0 0 .094-.232z" mask="url(#b)"/>
            </g>
            <path fill="#FFB640" d="M19.614 22.905zM19.531 20.28c-.12.164-.299.287-.538.367-.239.08-.608.121-1.108.121h-.954v-2.06h.953c.558 0 .944.032 1.16.1a.93.93 0 0 1 .496.335.944.944 0 0 1 .172.57c0 .214-.06.404-.18.568zm-1.74-4.389c.504 0 .853.028 1.048.083a.84.84 0 0 1 .447.278.737.737 0 0 1 .156.471.733.733 0 0 1-.163.47.958.958 0 0 1-.487.302c-.216.067-.549.101-1 .101h-.861v-1.705h.86zm3.41 3.035a1.564 1.564 0 0 0-.597-.59c-.173-.1-.423-.191-.751-.275a2.23 2.23 0 0 0 .737-.394c.186-.159.329-.342.429-.549a1.51 1.51 0 0 0 .147-.657 1.49 1.49 0 0 0-.28-.875 1.774 1.774 0 0 0-.801-.612 2.622 2.622 0 0 0-.47-.13v-1.233h-1.183v1.15h-.762v-1.15h-1.185v1.15H14.68v.968h.276c.184 0 .308.017.374.05a.291.291 0 0 1 .137.135c.027.058.04.189.04.396v3.9c0 .203-.013.336-.04.394a.278.278 0 0 1-.137.135c-.066.031-.19.048-.374.048h-.276l-.322.967h2.128v1.15h1.185v-1.15h.674l.087-.001v1.151h1.183v-1.249c.2-.037.374-.086.524-.145.408-.164.725-.403.947-.715.224-.313.336-.655.336-1.024a1.65 1.65 0 0 0-.22-.845z"/>
        </g>
    </g>
</svg>
