<svg xmlns="http://www.w3.org/2000/svg" width="36" height="36" viewBox="0 0 36 36">
    <g fill="none" fill-rule="evenodd">
        <circle cx="18" cy="18" r="18" fill="#F8930F"/>
        <path fill="#FFF" d="M21.816 23.197c-.367.381-.868.635-1.51.759-.642.128-1.607.107-2.893-.064l-2.454-.324.702-5.305 2.452.325c1.437.19 2.418.407 2.952.652.534.246.92.591 1.162 1.035.24.445.323.952.247 1.525a2.42 2.42 0 0 1-.658 1.397zM18.834 11.31c1.296.172 2.183.362 2.666.57.484.209.836.498 1.058.868.221.371.3.792.238 1.265a1.89 1.89 0 0 1-.58 1.152c-.326.312-.775.517-1.354.614-.576.099-1.446.072-2.608-.082l-2.215-.293.58-4.387 2.215.293zm7.738 8.97a4.051 4.051 0 0 0-1.334-1.719c-.412-.317-1.026-.639-1.839-.966.821-.165 1.497-.416 2.03-.762a4.339 4.339 0 0 0 1.29-1.265c.325-.5.523-1.047.602-1.641a3.857 3.857 0 0 0-.422-2.346c-.39-.747-1.008-1.363-1.853-1.846a6.569 6.569 0 0 0-1.164-.495l.42-3.174-3.045-.403-.391 2.959-1.959-.259.391-2.959L16.251 5l-.392 2.959-4.648-.615-.33 2.49.71.094c.472.062.787.147.944.256.156.109.26.241.309.395.049.156.038.5-.032 1.032l-1.329 10.036c-.069.523-.148.858-.236.998a.725.725 0 0 1-.401.301c-.179.058-.505.058-.977-.004l-.71-.095L8 25.227l5.478.725-.392 2.96 3.047.403.392-2.96 1.733.23.225.027-.392 2.962 3.043.403.425-3.213c.528-.03.992-.095 1.398-.198 1.107-.281 2.002-.787 2.682-1.515.682-.729 1.086-1.57 1.212-2.522a4.287 4.287 0 0 0-.279-2.249z"/>
    </g>
</svg>
