<svg xmlns="http://www.w3.org/2000/svg" width="36" height="36" viewBox="0 0 36 36">
    <g fill="none" fill-rule="evenodd">
        <path fill="#212121" d="M-1056-312H864V688h-1920z"/>
        <g>
            <circle cx="18" cy="18" r="18" fill="#F8930F"/>
            <circle cx="18" cy="18" r="13" fill="#FFF"/>
            <path fill="#072162" d="M20.758 21.288c-.204.278-.506.484-.91.62-.405.138-1.03.206-1.877.206h-1.614v-3.489h1.613c.945 0 1.598.057 1.964.169.366.113.646.304.84.57a1.6 1.6 0 0 1 .29.964c0 .362-.101.682-.306.96zm-2.945-7.43c.853 0 1.442.047 1.773.14.33.094.583.25.758.472.174.22.262.486.262.798 0 .298-.092.563-.276.793-.185.23-.457.4-.823.513-.364.113-.93.17-1.693.17h-1.458v-2.886h1.457zm5.77 5.137a2.643 2.643 0 0 0-1.009-.997c-.294-.17-.717-.325-1.272-.467.517-.177.933-.397 1.248-.666a2.85 2.85 0 0 0 .725-.929c.167-.35.25-.721.25-1.112 0-.536-.158-1.031-.474-1.481-.316-.45-.77-.795-1.357-1.035a4.303 4.303 0 0 0-.794-.22V10h-2.003v1.946h-1.29V10h-2.004v1.946h-3.057v1.638h.467c.31 0 .521.03.631.086.111.056.19.133.235.228.044.097.067.32.067.67v6.601c0 .344-.023.568-.067.666a.47.47 0 0 1-.235.229c-.11.053-.32.08-.631.08h-.467L12 23.784h3.603v1.946h2.005v-1.946h1.14l.148-.002v1.948h2.001v-2.113c.339-.065.633-.146.887-.247.692-.277 1.227-.681 1.604-1.21.379-.53.568-1.107.568-1.734 0-.527-.125-1.002-.372-1.43z"/>
            <path fill="#072162" d="M18.086 8.52c-5.18 0-9.394 4.214-9.394 9.395 0 5.18 4.214 9.394 9.394 9.394s9.395-4.214 9.395-9.394-4.214-9.396-9.395-9.396m0 20.309c-6.017 0-10.914-4.896-10.914-10.913C7.172 11.896 12.07 7 18.086 7 24.104 7 29 11.896 29 17.915c0 6.017-4.896 10.913-10.914 10.913"/>
        </g>
    </g>
</svg>
