<svg xmlns="http://www.w3.org/2000/svg" width="36" height="36" viewBox="0 0 36 36">
    <g fill="none" fill-rule="evenodd">
        <path fill="#212121" d="M-1132-236H788V764h-1920z"/>
        <g>
            <circle cx="18" cy="18" r="18" fill="#2573C2"/>
            <path fill="#F5F7FA" d="M29.687 14.96c-.349 1.258-1.48 5.031-1.945 6.37-.464 1.338-1.32 2.462-2.418 3.104-1.098.643-1.508.912-3.042.912H6.576l1.106-3.586h14.771l2.207-7.175H10.006L11.112 11h16.354c.749 0 1.74.347 2.221 1.284.482.936.348 1.417 0 2.676zM7.012 16.512h8.753l-1.013 3.291H6l1.012-3.291z"/>
        </g>
    </g>
</svg>
