<svg xmlns="http://www.w3.org/2000/svg" width="36" height="36" viewBox="0 0 36 36">
    <g fill="none" fill-rule="evenodd">
        <circle cx="18" cy="18" r="18" fill="#FFF"/>
        <path fill="#2F2F2F" d="M8.756 23.462a.418.418 0 0 1-.219.067.348.348 0 0 1-.18-.048.401.401 0 0 1-.211-.362.41.41 0 0 1 .208-.367.38.38 0 0 1 .384 0c.129.069.21.202.209.348a.4.4 0 0 1-.191.362zm1.382-.826a.375.375 0 0 1-.37-.02.416.416 0 0 1-.193-.398.395.395 0 0 1 .26-.347.358.358 0 0 1 .383.068c.12.098.177.253.147.403a.381.381 0 0 1-.227.294zm1.338-.835c-.12.03-.248-.001-.34-.084a.402.402 0 0 1-.132-.4.408.408 0 0 1 .285-.31.373.373 0 0 1 .399.12.4.4 0 0 1 .07.443.389.389 0 0 1-.282.23zm6.459-14.667a.703.703 0 0 1-.085.007.413.413 0 0 1-.354-.187.391.391 0 0 1-.022-.39.404.404 0 0 1 .318-.232.41.41 0 0 1 .376.132c.097.098.133.241.095.373-.029.15-.156.267-.328.297zm.087 1.67a.459.459 0 0 1-.182.04.4.4 0 0 1-.282-.11.383.383 0 0 1-.131-.33.405.405 0 0 1 .197-.315.42.42 0 0 1 .435-.01c.134.07.216.21.212.362a.395.395 0 0 1-.249.362zm.004 1.697a.452.452 0 0 1-.183.04.411.411 0 0 1-.26-.087.386.386 0 0 1-.156-.352.383.383 0 0 1 .208-.321.427.427 0 0 1 .442.014.408.408 0 0 1 .194.373.39.39 0 0 1-.245.333zm6.269 11.3a.354.354 0 0 1-.103.015.34.34 0 0 1-.252-.103.41.41 0 0 1-.132-.396.4.4 0 0 1 .274-.314.385.385 0 0 1 .41.117.413.413 0 0 1 .07.454.37.37 0 0 1-.267.227zm1.458.845a.396.396 0 0 1-.387-.062.417.417 0 0 1-.143-.395.406.406 0 0 1 .264-.322.377.377 0 0 1 .393.084c.118.106.165.26.125.403a.381.381 0 0 1-.252.292zm1.437.85a.356.356 0 0 1-.392-.06.39.39 0 0 1-.153-.343.412.412 0 0 1 .201-.34.362.362 0 0 1 .41.01c.137.088.21.25.182.41-.007.128-.106.26-.248.323zm-3.703-8.792c.003.702 0 1.405 0 2.108a311.55 311.55 0 0 0 .007 3.817v.048l-.03.04c-.05.074-.123.117-.178.15l-.03.019c-1.016.585-2.028 1.164-3.037 1.746l-1.97 1.13-.007 5.378 3.622-2.09 6.32-3.643.01-6.782.008-4.645-4.715 2.724zm.625-5.443c-2.062-1.182-4.12-2.366-6.177-3.555a4016.84 4016.84 0 0 0-6.726 3.935l-3.231 1.893 4.631 2.62 5.099-2.957a.4.4 0 0 1 .453.011l5.034 2.932 4.688-2.709c-1.256-.725-2.514-1.446-3.77-2.17zM7.638 23.462l9.971 5.681.004-5.384-1.966-1.13c-1.024-.59-2.048-1.176-3.067-1.765-.139-.063-.227-.223-.216-.403l-.095-5.765-4.61-2.614-.021 11.38zm5.27-8.403l.089 5.314 4.616 2.658.007-5.304-4.712-2.668zm5.34 7.975c1.551-.893 3.1-1.782 4.647-2.668v-5.319l-4.642 2.68-.005 5.307zm-.313-5.856l4.627-2.672-4.635-2.702-4.682 2.717 3.114 1.764 1.576.893zm10.885 6.318c.022.168-.084.347-.263.428-1.59.915-3.191 1.841-4.792 2.763l-5.637 3.25a.29.29 0 0 1-.183.063.492.492 0 0 1-.255-.084L13.804 27.7a5882.623 5882.623 0 0 0-6.59-3.752c-.143-.065-.227-.227-.212-.417l.007-3.163c.007-2.84.01-5.68.014-8.52.004-.037 0-.074 0-.107-.003-.15-.01-.399.227-.508 1.901-1.12 3.82-2.24 5.735-3.365 1.54-.9 3.082-1.804 4.624-2.708a1.96 1.96 0 0 1 .293-.135L17.967 5l.063.036c1.772 1.015 3.542 2.036 5.314 3.053 1.689.97 3.378 1.944 5.07 2.914l.08.048c.14.073.37.2.344.475l-.018 11.97z"/>
    </g>
</svg>
