<svg xmlns="http://www.w3.org/2000/svg" width="36" height="36" viewBox="0 0 36 36">
    <g fill="none" fill-rule="evenodd">
        <circle cx="18" cy="18" r="18" fill="#010101"/>
        <g fill="#FFF">
            <path d="M18.036 5L12.9 12.186l1.333 4.24 3.803-6.544zM18.706 5v4.882l3.804 6.543 1.333-4.24zM22.966 17.209l3.515 6.04-2.317-9.85zM22.242 17.29l-2.43 7.741h-2.88L14.5 17.289l3.871-6.65zM20.514 25.03h6.228l-4.044-6.957zM20.307 25.7L18.954 30l7.166-4.3zM17.139 25.7l1.232 3.925 1.233-3.925zM10.623 25.7l7.165 4.3-1.352-4.3zM10 25.03h6.228l-2.183-6.957zM10.261 23.25l3.516-6.041-1.199-3.81z"/>
        </g>
    </g>
</svg>
