<svg xmlns="http://www.w3.org/2000/svg" width="36" height="36" viewBox="0 0 36 36">
    <g fill="none" fill-rule="evenodd">
        <path fill="#212121" d="M-980-236H940V764H-980z"/>
        <g>
            <circle cx="18" cy="18" r="18" fill="#000"/>
            <path fill="#F5F7FA" d="M18.392 6L8 12v12l10.392 6 10.393-6V12L18.392 6zm-4.156 11.168l.766-.443-4.07-2.35L18.6 9.948l7.234 4.125-1.94 1.127-5.294-3.035-3.829 2.208 2.144 1.237 1.094-.637 1.806 1.035-1.104.637 1.26.73.897-.521 1.806 1.033-.905.527 4.489 2.592-7.653 4.43-7.977-4.55.032-2.213 7.94 4.545 3.829-2.208-2.568-1.482-.96.554-1.802-1.035.966-.559-1.261-.73-.763.444-1.805-1.035z"/>
        </g>
    </g>
</svg>
