<svg xmlns="http://www.w3.org/2000/svg" width="36" height="36" viewBox="0 0 36 36">
    <g fill="none" fill-rule="evenodd">
        <circle cx="18" cy="18" r="18" fill="#FFF"/>
        <path fill="#000" d="M27.985 18.925a.93.93 0 0 1 .934-.928.93.93 0 0 1 .932.928.93.93 0 0 1-.932.928.93.93 0 0 1-.934-.928M26.81 20.97c0-.432.352-.783.787-.783.435 0 .787.351.787.783a.785.785 0 0 1-.787.784.785.785 0 0 1-.787-.784m-1.081-1.024c0 .443-.36.8-.804.8a.802.802 0 0 1-.805-.8c0-.441.36-.8.805-.8.444 0 .803.359.803.8m-1.84-4.075c-.613 0-1.11-.495-1.11-1.105s.497-1.105 1.11-1.105c.615 0 1.112.495 1.112 1.105s-.497 1.105-1.112 1.105m2.925 6.529a.699.699 0 0 1-.7.697.699.699 0 0 1-.701-.697.7.7 0 0 1 .7-.698c.387 0 .7.313.7.698m-1.24 4.554a1.49 1.49 0 0 1 1.494 1.486 1.49 1.49 0 0 1-1.494 1.486 1.49 1.49 0 0 1-1.494-1.486c0-.82.669-1.486 1.494-1.486m-.97-4.201a.55.55 0 1 1 0 1.098.55.55 0 0 1 0-1.099m-1.858-1.373c0-.382.312-.69.696-.69a.691.691 0 1 1 0 1.38.693.693 0 0 1-.696-.69m-.074 2.383a.501.501 0 0 1 1.003 0 .501.501 0 1 1-1.004 0m-1.979 3.105c0-.684.559-1.24 1.246-1.24.69 0 1.246.556 1.246 1.24 0 .683-.557 1.24-1.246 1.24a1.243 1.243 0 0 1-1.246-1.24m.643-4.559a.595.595 0 1 1 1.192 0 .595.595 0 0 1-1.192 0m-.973-9.182c.324 0 .587.262.587.584a.587.587 0 1 1-1.176 0c0-.322.264-.584.588-.584m.415 2.842a.672.672 0 0 1-1.347 0c0-.37.302-.67.674-.67.372 0 .673.3.673.67m-.673 5.647a.69.69 0 0 1-.692-.69.692.692 0 1 1 1.386 0c0 .38-.311.69-.694.69m-.233 6.591c.694 0 1.256.56 1.256 1.25s-.562 1.25-1.256 1.25-1.256-.56-1.256-1.25.562-1.25 1.256-1.25m-.63-4.472c.602 0 1.089.485 1.089 1.082 0 .598-.487 1.082-1.088 1.082-.6 0-1.088-.484-1.088-1.082 0-.598.487-1.082 1.088-1.082m-5.534-1.939a.687.687 0 0 1-.688-.685c0-.378.308-.684.688-.684.38 0 .689.306.689.684a.687.687 0 0 1-.689.685m-.027-1.849a.594.594 0 0 1-.597-.592c0-.327.268-.593.597-.593.328 0 .596.266.596.593a.594.594 0 0 1-.596.592m1.333 3.158c0 .44-.358.795-.8.795a.798.798 0 0 1-.8-.795c0-.44.357-.796.8-.796.441 0 .8.356.8.796m1.23 2.161c0 .508-.413.92-.923.92a.922.922 0 0 1-.924-.92c0-.507.414-.918.924-.918s.924.411.924.918m-.464-7.493c.383 0 .694.31.694.691 0 .382-.31.69-.694.69a.692.692 0 0 1-.695-.69c0-.38.311-.69.695-.69m-.134-3.423c.513 0 .93.414.93.924s-.417.924-.93.924a.927.927 0 0 1-.93-.924c0-.51.417-.924.93-.924m1.427 6.111a.787.787 0 0 1-.79.786.787.787 0 0 1-.79-.786c0-.434.354-.785.79-.785.437 0 .79.351.79.785m1.25 2.166c0 .509-.413.92-.924.92a.922.922 0 0 1-.924-.92c0-.507.414-.919.924-.919s.925.412.925.92m-.236-8.024c.442 0 .8.357.8.796 0 .44-.358.796-.8.796a.798.798 0 0 1-.8-.796c0-.44.358-.796.8-.796m-.915 11.772c.6 0 1.086.483 1.086 1.08 0 .596-.486 1.08-1.086 1.08-.599 0-1.085-.484-1.085-1.08 0-.597.486-1.08 1.085-1.08m-2.222 1.797a1.08 1.08 0 0 1 1.082 1.076c0 .595-.484 1.077-1.082 1.077a1.079 1.079 0 0 1-1.082-1.077 1.08 1.08 0 0 1 1.082-1.076m-1.86-2.027c.51 0 .921.411.921.918a.92.92 0 0 1-.921.917.92.92 0 0 1-.922-.917.92.92 0 0 1 .922-.918m-1.096-2.035c.438 0 .793.353.793.789 0 .436-.355.79-.793.79a.792.792 0 0 1-.794-.79c0-.436.356-.79.794-.79m-.234-4.914a.5.5 0 1 1 0 .998.501.501 0 0 1-.502-.5.5.5 0 0 1 .502-.498m.285 1.951a.587.587 0 0 1-.59.585.587.587 0 0 1-.59-.585c0-.323.265-.586.59-.586.326 0 .59.263.59.586m-.565 1.07c.38 0 .687.306.687.684a.686.686 0 0 1-1.374 0c0-.378.307-.684.687-.684M9.708 15.82c.704 0 1.275.568 1.275 1.268 0 .7-.571 1.269-1.275 1.269a1.272 1.272 0 0 1-1.276-1.269c0-.7.571-1.268 1.276-1.268m-1.73 3.597c0 .818-.667 1.48-1.489 1.48-.823 0-1.489-.662-1.489-1.48s.666-1.481 1.49-1.481c.821 0 1.488.663 1.488 1.481m.467-4.173c-.7 0-1.268-.565-1.268-1.262 0-.697.568-1.261 1.268-1.261.701 0 1.27.565 1.27 1.26 0 .698-.569 1.263-1.27 1.263m2.656-4.339c-.583 0-1.055-.47-1.055-1.049s.473-1.049 1.055-1.049 1.054.47 1.054 1.05c0 .578-.472 1.048-1.054 1.048m.448 2.85c-.6 0-1.087-.485-1.087-1.082 0-.598.487-1.082 1.087-1.082.601 0 1.088.484 1.088 1.082 0 .597-.487 1.081-1.088 1.081m2.363 2.017c0 .6-.49 1.085-1.093 1.085-.601 0-1.09-.486-1.09-1.085 0-.6.489-1.086 1.09-1.086a1.09 1.09 0 0 1 1.092 1.086m.012-5.487a.928.928 0 0 1-.93-.925c0-.51.416-.925.93-.925s.93.415.93.925c0 .511-.416.925-.93.925m.461 2.819a.927.927 0 0 1-.93-.925c0-.51.417-.924.93-.924.514 0 .93.414.93.924s-.416.925-.93.925m1.98-2.819a.8.8 0 0 1-.802-.797.8.8 0 0 1 .802-.798.799.799 0 0 1 0 1.595m.454 2.804a.793.793 0 0 1-.795-.791c0-.437.356-.791.795-.791.44 0 .795.354.795.79a.792.792 0 0 1-.795.792m1.547-2.36a.673.673 0 0 1-.676-.672c0-.372.303-.672.676-.672.372 0 .674.3.674.672a.673.673 0 0 1-.674.671m.445 2.813a.68.68 0 0 1-.681-.677c0-.374.305-.677.68-.677.377 0 .681.303.681.677a.68.68 0 0 1-.68.677m1.092-2.034a.602.602 0 0 1-.603-.6c0-.332.27-.601.603-.601.334 0 .604.269.604.6 0 .332-.27.6-.604.6m1.124.891a.496.496 0 0 1-.497-.493.497.497 0 0 1 .994 0 .495.495 0 0 1-.497.493m1.362 7.09a.795.795 0 0 1-.797.794.794.794 0 0 1-.797-.793c0-.439.357-.793.797-.793.44 0 .797.354.797.793m1.464-2.032a.93.93 0 0 1-.931.927.93.93 0 0 1-.933-.927.93.93 0 0 1 .933-.927.93.93 0 0 1 .93.927m.057-8.47c-.83 0-1.502-.669-1.502-1.493 0-.825.672-1.493 1.502-1.493.829 0 1.5.668 1.5 1.493 0 .824-.671 1.492-1.5 1.492m.41 3.689a1.268 1.268 0 0 1-1.272-1.265c0-.698.57-1.263 1.271-1.263.703 0 1.271.565 1.271 1.263s-.568 1.265-1.27 1.265m2.863 5.235c0 .509-.414.92-.925.92a.922.922 0 0 1-.925-.92c0-.507.414-.92.925-.92.51 0 .925.413.925.92m.06-3.764c.599 0 1.084.482 1.084 1.078 0 .596-.485 1.079-1.084 1.079a1.082 1.082 0 0 1-1.084-1.08c0-.595.485-1.077 1.084-1.077m.409-1c-.7 0-1.268-.566-1.268-1.262 0-.697.568-1.26 1.268-1.26.7 0 1.269.563 1.269 1.26 0 .696-.568 1.261-1.27 1.261m2.26 4.185a1.09 1.09 0 0 1-1.093-1.086c0-.598.489-1.084 1.093-1.084.602 0 1.091.486 1.091 1.084 0 .6-.489 1.087-1.091 1.087"/>
    </g>
</svg>
