<svg xmlns="http://www.w3.org/2000/svg" width="36" height="36" viewBox="0 0 36 36">
    <g fill="none" fill-rule="evenodd">
        <path fill="#212121" d="M-752-464h1920V536H-752z"/>
        <g>
            <circle cx="18" cy="18" r="18" fill="#102044"/>
            <path fill="#FFF" d="M18.171 27.856a1.555 1.555 0 0 0-1.336.755l-3.381-1.954v-7.714l1.439-.846 1.864 1.116a1.379 1.379 0 1 0 2.733.246c0-.07-.006-.137-.018-.204l1.9-1.151 1.349.809v7.744l-3.309 1.822a1.545 1.545 0 0 0-1.24-.623zm-9.17-3.77A1.559 1.559 0 0 0 8 21.988v-8.943a1.547 1.547 0 0 0 1.073-1.87l3.518-2.032v7.337h.006v.287l.467.24 1.008.6-1.116.658-.299.18-.06.06-.006.24v7.414l-3.59-2.073zm10.081-5.598a1.378 1.378 0 0 0-1.912-.03l-1.426-.858 1.432-.839c.54.498 1.376.485 1.9-.03l1.457.875-1.45.882zm-.91-11.37c.417 0 .817-.17 1.108-.468l3.5 2.02v7.57l-1.408.85-1.9-1.138a1.378 1.378 0 1 0-2.74-.21c.003.088.01.177.025.264l-1.84 1.09-1.457-.874V8.645l3.549-2.05c.295.332.718.522 1.162.522zm5.412 11.387h-.006l-.006-.035-.006-.084-.186-.09-1.169-.702 1.223-.737.192-.09.012-.467h.006V9.167l3.392 1.96a1.561 1.561 0 0 0 1.193 1.954v8.87a1.563 1.563 0 0 0-1.067 2.26l-3.578 1.967v-7.673zm5.514 3.519v-9.015a1.558 1.558 0 0 0-.557-3.015 1.533 1.533 0 0 0-1.043.402l-7.804-4.508a1.558 1.558 0 1 0-3.08-.33c-.001.085.005.169.017.252l-7.996 4.616a1.559 1.559 0 1 0-1.504 2.625v8.93a1.559 1.559 0 1 0 1.312 2.782l4.148 2.391v.049h.09l3.938 2.271a1.559 1.559 0 1 0 3.11-.185l8.075-4.442a1.553 1.553 0 0 0 2.301-1.367 1.573 1.573 0 0 0-1.007-1.456z"/>
        </g>
    </g>
</svg>
