<svg xmlns="http://www.w3.org/2000/svg" xmlns:xlink="http://www.w3.org/1999/xlink" width="36" height="36" viewBox="0 0 36 36">
    <defs>
        <path id="a" d="M0 0h26V23.14H0z"/>
    </defs>
    <g fill="none" fill-rule="evenodd">
        <path fill="#212121" d="M-676-312h1920V688H-676z"/>
        <g>
            <circle cx="18" cy="18" r="18" fill="#000"/>
            <g transform="translate(6 6.1)">
                <mask id="b" fill="#fff">
                    <use xlink:href="#a"/>
                </mask>
                <path fill="#2EA7DE" d="M11.769 18.373c-.783 1.084-1.572 2.16-2.361 3.25.07.118.135.242.194.371h5.04c.059-.129.123-.253.194-.377-.782-1.083-1.577-2.154-2.355-3.244-.235.054-.477.06-.712 0zm6.965-1.024c-.23.253-.56.389-.895.341-.577 1.278-1.16 2.555-1.725 3.839 1.543-1.1 3.073-2.22 4.61-3.327-.66-.288-1.325-.576-1.99-.853zm-14.749.647c.006.177-.012.348-.058.518 1.4 1.001 2.796 2.02 4.209 3.015-.565-1.284-1.154-2.555-1.725-3.839-.159 0-.324.012-.477-.047-.17-.065-.3-.182-.43-.3l-1.519.653zm9.062-.382c-.042.17-.118.335-.212.488.789 1.078 1.572 2.161 2.36 3.244.172-.035.342-.046.519-.046.565-1.272 1.136-2.538 1.696-3.816a2.26 2.26 0 0 1-.283-.376c-1.36.17-2.72.341-4.08.506zm-5.93-.5a2.355 2.355 0 0 1-.294.393c.565 1.267 1.136 2.527 1.708 3.793.17-.006.347.011.518.046.789-1.083 1.578-2.16 2.36-3.25a1.615 1.615 0 0 1-.21-.482c-1.361-.165-2.721-.336-4.082-.5zm13.03-3.91c-.506.96-1.018 1.92-1.525 2.88.218.229.348.53.3.847.672.283 1.337.576 2.008.865-.118-1.795-.218-3.585-.353-5.381-.16.253-.289.524-.43.789zm-4.857-.736c-.842 1.454-1.678 2.909-2.52 4.363.082.112.153.223.223.341 1.36-.177 2.72-.341 4.08-.506.048-.236.177-.442.342-.607-.565-1.194-1.124-2.385-1.684-3.573-.147 0-.294-.006-.441-.018zm-6.777.018c-.56 1.188-1.119 2.379-1.678 3.567.165.171.294.377.342.613 1.36.165 2.713.336 4.074.5.07-.112.147-.223.223-.335-.841-1.454-1.678-2.909-2.52-4.363a5.565 5.565 0 0 1-.441.018zm-4.875.689c-.094 1.365-.194 2.732-.283 4.097.165.077.318.177.453.3a82.82 82.82 0 0 0 1.52-.653c-.053-.312.088-.612.3-.836-.648-1.213-1.26-2.45-1.926-3.65-.04.247-.046.494-.064.742zm18.016-1.378a1.041 1.041 0 0 1-.618.63c.094 1.513.195 3.026.294 4.533.495-1.536.995-3.067 1.496-4.604a1.24 1.24 0 0 1-.418-.56h-.754zm-5.199 0c-.07.182-.182.347-.318.488.56 1.196 1.125 2.385 1.685 3.574.135 0 .27 0 .406.012.636-1.213 1.277-2.42 1.92-3.627a1.586 1.586 0 0 1-.29-.447c-1.135 0-2.266-.006-3.403 0zm-6.853 0c-.065.159-.153.306-.259.442.842 1.454 1.684 2.914 2.52 4.368a1.92 1.92 0 0 1 .518 0c.842-1.454 1.678-2.909 2.52-4.368a1.865 1.865 0 0 1-.26-.442c-1.677 0-3.355-.006-5.039 0zm-5.17 0c-.07.17-.17.33-.294.47.63 1.202 1.26 2.397 1.884 3.598.136-.006.271-.006.4-.006.566-1.189 1.125-2.378 1.685-3.568a1.584 1.584 0 0 1-.319-.494c-1.118-.006-2.236 0-3.356 0zm-3.02.541c.507 1.543 1.007 3.091 1.508 4.64l.318-4.528c-.3-.112-.518-.359-.624-.653-.26 0-.525-.006-.784 0-.082.217-.241.394-.418.541zm16.41-5.045c-.554 1.189-1.113 2.384-1.666 3.573.129.141.23.3.3.478h3.385c.065-.177.165-.337.283-.483-.63-1.196-1.266-2.391-1.896-3.592-.135.012-.271.018-.406.024zM6.028 7.275l-1.89 3.603c.124.135.224.295.29.466h3.36c.071-.183.184-.348.319-.49-.554-1.189-1.119-2.378-1.679-3.561a82.47 82.47 0 0 1-.4-.018zm3.315 3.627c.106.135.194.282.26.442h5.039c.065-.16.153-.307.26-.442-.843-1.466-1.69-2.927-2.538-4.393-.16.018-.324.018-.483 0-.848 1.461-1.69 2.927-2.538 4.393zm11.7-.236c.135.071.281.13.382.247.118.119.182.277.247.43h.736a1.2 1.2 0 0 1 .418-.56c-.495-1.536-.995-3.066-1.496-4.603-.1 1.496-.193 2.99-.288 4.486zM1.43 10.76c.183.16.347.348.412.584h.772a1.08 1.08 0 0 1 .618-.654c-.1-1.508-.206-3.02-.312-4.528-.495 1.537-.995 3.068-1.49 4.598zm11.558-4.792c-.071.112-.148.218-.23.318.842 1.466 1.69 2.926 2.532 4.392.147-.018.294-.03.441-.03.56-1.189 1.125-2.372 1.679-3.561-.16-.171-.295-.377-.337-.613-1.36-.165-2.726-.336-4.085-.506zM7.17 6.48c-.042.236-.171.436-.336.607.56 1.189 1.118 2.378 1.678 3.562.147.006.294.011.441.023l2.52-4.392a6.527 6.527 0 0 1-.223-.33c-1.36.17-2.72.353-4.08.53zm11.752-.27c0 .152.011.305-.042.447-.053.153-.158.276-.26.4l1.803 3.397c.041.083.1.16.153.236.03-.212.04-.424.053-.642.089-1.39.182-2.785.265-4.174a1.773 1.773 0 0 1-.465-.318c-.5.218-1.007.441-1.507.653zM3.355 5.867c.112 1.613.206 3.232.342 4.845.141-.212.247-.435.365-.653.524-1.001 1.042-2.002 1.566-2.997-.218-.23-.353-.53-.3-.848-.506-.218-1.013-.435-1.513-.653-.136.123-.295.23-.46.306zm11.84-4.075c-.788 1.078-1.566 2.155-2.348 3.233.087.147.158.306.2.47 1.36.178 2.72.354 4.086.525.082-.136.182-.266.294-.383L15.714 1.84c-.177 0-.347-.018-.518-.048zm-6.664.048a724.46 724.46 0 0 0-1.708 3.803c.112.118.212.241.294.383l4.075-.53c.053-.165.117-.324.212-.471-.789-1.078-1.566-2.161-2.355-3.233-.171.036-.342.048-.518.048zm7.583-.224C16.68 2.9 17.262 4.172 17.84 5.45c.171 0 .353 0 .518.07.147.06.265.171.383.283.506-.224 1.013-.442 1.52-.66 0-.17.017-.335.052-.506-1.402-1.007-2.79-2.026-4.198-3.02zM3.932 4.637c.041.165.059.336.053.506.506.218 1.013.442 1.52.66.123-.112.247-.23.4-.289.159-.064.336-.064.506-.064.571-1.278 1.16-2.555 1.725-3.84-1.407 1.001-2.802 2.02-4.204 3.027zm5.67-3.491c-.059.129-.123.253-.188.37.783 1.078 1.572 2.15 2.355 3.227.223-.059.46-.059.689-.006.788-1.077 1.584-2.149 2.372-3.226a4.618 4.618 0 0 1-.188-.365h-5.04zM15.148.092c.406-.206.96-.053 1.184.353.17.242.16.554.082.824 1.39 1.001 2.773 2.008 4.169 3.009.188-.13.412-.235.648-.206.524.006.953.536.865 1.048-.03.27-.212.494-.424.654.524 1.625 1.06 3.244 1.578 4.863.342.006.689.153.86.459.247.377.14.907-.2 1.184-.183.159-.424.2-.66.217-.6 1.867-1.207 3.722-1.808 5.582l2.356 2.02c.288-.207.641-.348 1.007-.295.659.053 1.212.671 1.195 1.331.012.606-.454 1.177-1.043 1.3-.565.136-1.19-.134-1.46-.647-.265-.406-.211-.936.006-1.348-.783-.665-1.554-1.336-2.337-2.002-1.584 1.142-3.168 2.29-4.752 3.433.077.27.095.577-.076.818-.218.4-.76.56-1.166.37-.26-.117-.436-.358-.53-.617h-5.04c-.088.241-.241.47-.477.589-.412.23-.995.07-1.224-.353-.165-.236-.141-.543-.071-.807-1.396-1.001-2.785-2.002-4.174-2.997-.224.147-.495.242-.766.182-.47-.082-.83-.577-.736-1.048.035-.27.212-.488.418-.647l-1.59-4.887c-.335 0-.682-.154-.848-.46-.288-.43-.088-1.06.366-1.29.153-.081.33-.099.5-.11L2.572 5.78c-.23-.171-.406-.42-.424-.707-.064-.512.383-1.013.901-1.001.224-.018.43.088.618.206C5.057 3.277 6.44 2.27 7.83 1.269c-.065-.259-.094-.547.052-.783A.926.926 0 0 1 8.89.02c.347.059.6.354.712.677h5.04c.094-.253.253-.488.506-.606z" mask="url(#b)"/>
            </g>
        </g>
    </g>
</svg>
