<svg xmlns="http://www.w3.org/2000/svg" width="36" height="36" viewBox="0 0 36 36">
    <g fill="none" fill-rule="evenodd">
        <path fill="#212121" d="M-752-388h1920V612H-752z"/>
        <g>
            <circle cx="18" cy="18" r="18" fill="#5F2652"/>
            <path fill="#FFF" d="M20.02 15.723c.228.1.456.214.655.342.014 0 .028.013.028.013.057.029.1.072.156.115a.25.25 0 0 1 .072.056c.042.029.099.072.141.114.029.029.057.043.086.071.043.043.085.071.128.114l.085.085.113.114.086.085a.85.85 0 0 0 .099.114c.028.029.057.07.086.099l.085.128c.028.043.056.071.07.114l.086.128c.029.042.043.085.071.113.029.043.043.086.071.128.028.043.043.086.071.128.014.043.043.086.057.128.029.056.043.114.071.157.114.284.2.582.242.909l.127.498c.057.212.569 2.03 1.763 2.643 1.364.71 3.168 1.591 3.88 1.932l-9.366 5.599v-3.837c0-.611 1.208-1.321 1.763-1.563l.028-.014c.113-.058.227-.114.34-.185l.044-.028c.241-.143.468-.313.682-.497.014-.015.042-.029.056-.057.029-.015.043-.043.071-.057.072-.057.129-.129.2-.185l.028-.029a1.49 1.49 0 0 0 .199-.227c.014-.028.042-.043.057-.071.057-.057.1-.128.156-.2.014-.013.029-.042.043-.056l.17-.256c0-.013.014-.013.014-.028.072-.114.142-.241.213-.355a5.413 5.413 0 0 1-.667-1.052c-.071.213-.171.427-.27.611-.043.085-.1.17-.143.256-.014.014-.014.028-.028.028-.043.072-.1.142-.142.2-.014.014-.028.042-.042.056-.043.072-.1.128-.157.185-.014.014-.014.028-.028.028-.341.384-.754.71-1.223.938l-.085.043c-.241.1-2.33 1.051-2.33 2.486v3.838l-9.379-5.585c.61-.37 2.373-1.421 3.823-1.876.568-.184 1.776.582 2.458 1.137l.042.042c.086.086.185.17.285.242l.028.029c.213.17.44.34.697.469l.17.085a4.808 4.808 0 0 0 .512.241c.028.015.043.015.07.028.015 0 .03.015.058.015.241.085.483.156.724.213.185-.355.455-.668.739-.937a4 4 0 0 1-1.165-.256c-.014-.015-.043-.015-.057-.029-.042-.014-.085-.028-.128-.057-.014-.015-.043-.015-.057-.028-.042-.015-.085-.043-.113-.057a4.065 4.065 0 0 1-.782-.498l-.37-.34a6.894 6.894 0 0 0-1.108-.796c-.923-.526-1.705-.697-2.302-.512-1.236.398-2.643 1.151-3.496 1.648l9.365-16.824v7.374c0 .256-.384.938-1.677 1.52l-.085.043c-.128.058-.242.129-.37.2l-.028.014c-.241.141-.469.312-.696.498-.143.113-.27.24-.384.368l-.014.015a3.034 3.034 0 0 0-.341.398l-.015.014c-.056.072-.099.142-.155.213 0 .014-.015.014-.015.029-.043.07-.085.127-.128.199 0 .013-.014.013-.014.028l-.128.213c-.014.014-.014.028-.029.057-.042.071-.07.142-.099.199 0 .014-.014.029-.014.029-.028.07-.057.127-.085.199-.014.027-.014.042-.03.07l-.084.214c-.014.028-.014.042-.029.07a.7.7 0 0 1-.056.157c-.014.029-.014.057-.029.085-.014.071-.042.143-.057.2-.014.027-.014.07-.028.098-.014.043-.014.1-.029.143-.014.042-.014.085-.028.127-.014.057-.014.114-.028.17 0 .043-.015.072-.015.114 0 .058-.014.1-.014.158 0 .056 0 .098-.014.155v.214c0 .255.014.526.057.767.37.085.753.242 1.166.44a4.41 4.41 0 0 1-.185-1.15v-.072c0-.099 0-.184.014-.284v-.07c0-.086.014-.158.028-.243v-.028l.043-.27c0-.028.014-.043.014-.071.014-.07.043-.142.057-.213 0-.014.014-.029.014-.042l.085-.256c.015-.015.015-.043.029-.057.028-.072.056-.142.085-.2.014-.014.014-.028.028-.056.043-.085.071-.157.128-.228.015-.014.015-.028.029-.042.042-.071.07-.128.113-.2.014-.013.014-.028.029-.042.043-.071.1-.142.156-.213 0 0 0-.014.014-.014l.157-.2c.014-.013.014-.028.028-.041.256-.284.54-.527.867-.74l.44-.213c.242-.1 2.317-1.08 2.317-2.515V5.976l9.45 16.967c-.839-.413-2.33-1.151-3.482-1.749-.668-.34-1.108-1.548-1.236-1.989l-.128-.512c0-.27-.071-.539-.156-.81a5.171 5.171 0 0 0-1.478-2.188l-.256-.213-.014-.014a3.026 3.026 0 0 0-.256-.185l-.014-.015c-.085-.056-.17-.113-.27-.17-.015 0-.015-.014-.029-.014-.085-.057-.185-.1-.27-.142-.014 0-.014-.014-.028-.014a6.227 6.227 0 0 0-.284-.128c-.014 0-.014-.014-.029-.014-.085-.03-.17-.071-.255-.1a4.007 4.007 0 0 0-.711-.199c-.184.356-.44.668-.725.939.44.028.867.141 1.25.297m9.763 7.504L19.367 4.54a1.019 1.019 0 0 0-.909-.54c-.384 0-.725.2-.91.54L7.132 23.227a1.035 1.035 0 0 0 .37 1.393l10.43 6.238c.17.099.355.142.54.142.184 0 .37-.043.54-.142l10.416-6.225c.47-.297.64-.923.355-1.406"/>
        </g>
    </g>
</svg>
