<svg xmlns="http://www.w3.org/2000/svg" xmlns:xlink="http://www.w3.org/1999/xlink" width="36" height="36" viewBox="0 0 36 36">
    <defs>
        <path id="a" d="M0 0h30v30H0z"/>
    </defs>
    <g fill="none" fill-rule="evenodd">
        <path fill="#212121" d="M-1132-312H788V688h-1920z"/>
        <g>
            <circle cx="18" cy="18" r="18" fill="#FFF"/>
            <path fill="#20EE82" d="M18.059 10.498a7.503 7.503 0 0 0-.49 14.997l.044.001c.13 0 .26.005.39 0h7.501v-7.405c0-4.137-3.307-7.563-7.443-7.595M22.502 18v4.5h-4.5a4.5 4.5 0 1 1 4.5-4.5"/>
            <g transform="translate(3 3)">
                <mask id="b" fill="#fff">
                    <use xlink:href="#a"/>
                </mask>
                <path fill="#7F8C8D" d="M25.608 4.393C20.476-.739 12.551-1.374 6.725 2.487c.17.186.314.393.43.615 5.53-3.648 13.061-3.04 17.923 1.821 5.556 5.556 5.556 14.597 0 20.153-5.556 5.556-14.597 5.556-20.153 0-4.862-4.862-5.47-12.393-1.822-17.92a2.983 2.983 0 0 1-.616-.433c-3.862 5.825-3.225 13.75 1.907 18.883 5.858 5.858 15.355 5.858 21.213 0 5.859-5.857 5.859-15.355 0-21.213" mask="url(#b)"/>
            </g>
            <path fill="#20EE82" d="M6.44 6.44a1.5 1.5 0 1 1 2.121 2.12 1.5 1.5 0 0 1-2.12-2.12"/>
        </g>
    </g>
</svg>
