<svg xmlns="http://www.w3.org/2000/svg" xmlns:xlink="http://www.w3.org/1999/xlink" width="36" height="36" viewBox="0 0 36 36">
    <defs>
        <path id="a" d="M0 .206h22.59v18.797H0z"/>
    </defs>
    <g fill="none" fill-rule="evenodd">
        <path fill="#212121" d="M-1208-312H712V688h-1920z"/>
        <g>
            <circle cx="18" cy="18" r="18" fill="#FFF"/>
            <g transform="translate(7 8.4)">
                <mask id="b" fill="#fff">
                    <use xlink:href="#a"/>
                </mask>
                <path fill="#165098" d="M18.104.301c-1.042.875-2.116 1.95-2.553 3.259-.504 1.544.2 3.123.873 4.499.672 1.412 1.412 2.788 2.05 4.232.504 1.142 1.208 2.485 1.041 3.762-.134.907-.437 1.78-.604 2.686-.134.605.437 0 .638-.166 1.175-1.008 2.45-2.15 2.92-3.695.235-.772.101-1.479-.166-2.216-.269-.706-.572-1.377-.875-2.084a227.08 227.08 0 0 0-1.982-4.231 23.184 23.184 0 0 1-.772-1.58 5.495 5.495 0 0 1-.403-1.812 7.296 7.296 0 0 1 .033-1.479c.034-.37.135-.704.168-1.074.035-.2-.132-.27-.368-.1m-15.38 0C1.683 1.173.608 2.248.171 3.558c-.504 1.545.201 3.124.874 4.5.672 1.41 1.41 2.788 2.047 4.23.504 1.142 1.209 2.485 1.041 3.763-.133.907-.436 1.779-.604 2.686-.134.605.438 0 .638-.167 1.175-1.008 2.451-2.15 2.921-3.695.234-.772.1-1.478-.167-2.216-.268-.705-.57-1.377-.874-2.084a227.043 227.043 0 0 0-1.982-4.231 23.046 23.046 0 0 1-.772-1.579 5.514 5.514 0 0 1-.403-1.813 7.246 7.246 0 0 1 .033-1.478c.034-.37.134-.705.168-1.075C3.126.2 2.959.132 2.724.3" mask="url(#b)"/>
            </g>
            <path fill="#5C9DD5" d="M17.179 6.148c-1.175.975-2.45 2.15-3.157 3.526-.505.974-.572 1.982-.304 2.988.337 1.209.806 2.417 1.31 3.593.973 2.25 2.25 4.366 3.19 6.649.337.805.705 1.712.772 2.62.067 1.108-.303 2.284-.605 3.325-.066.303-.267.705-.234 1.008.034.234.168.133.303.033a16.95 16.95 0 0 0 1.646-1.445c1.376-1.309 2.954-3.057 2.82-5.104-.067-.84-.47-1.646-.805-2.418a65.094 65.094 0 0 0-1.174-2.65 130.03 130.03 0 0 0-2.318-4.87c-.267-.572-.604-1.109-.805-1.68-.303-.772-.437-1.579-.47-2.384-.034-.604 0-1.242.067-1.846.033-.404.167-.772.167-1.176.1-.37-.1-.403-.403-.169"/>
        </g>
    </g>
</svg>
