<svg xmlns="http://www.w3.org/2000/svg" xmlns:xlink="http://www.w3.org/1999/xlink" width="36" height="36" viewBox="0 0 36 36">
    <defs>
        <path id="a" d="M0 0h24v22.3H0z"/>
    </defs>
    <g fill="none" fill-rule="evenodd">
        <path fill="#212121" d="M-1056-388H864V612h-1920z"/>
        <g>
            <circle cx="18" cy="18" r="18" fill="#FFF"/>
            <g transform="translate(6 7)">
                <mask id="b" fill="#fff">
                    <use xlink:href="#a"/>
                </mask>
                <path fill="#21BBC0" d="M12.13 22.3a.725.725 0 0 1-.392-.117L.492 14.941a.021.021 0 0 1 0-.03l.478-.745a.021.021 0 0 1 .03 0l11.125 7.167a.022.022 0 0 0 .023 0l10.545-6.776a.84.84 0 0 0 .387-.71v-1.666a.022.022 0 0 0-.023-.02.028.028 0 0 0-.01.002l-10.65 6.783a.724.724 0 0 1-.78 0L.857 12.1A1.826 1.826 0 0 1 0 10.552V8.218c0-.189.073-.37.204-.505l.036-.03.206-.14L11.864.102l.012-.007a.722.722 0 0 1 .75.018l11.036 7.03a.728.728 0 0 1 0 1.23l-11.13 7.028a.73.73 0 0 1-.776 0L.958 8.602a.021.021 0 0 0-.029.009.024.024 0 0 0-.003.01v1.93a.899.899 0 0 0 .419.765l10.653 6.77a.022.022 0 0 0 .022 0l10.866-6.931a.726.726 0 0 1 .876.072c.155.147.24.353.233.566v2.048a1.765 1.765 0 0 1-.813 1.492l-10.664 6.853a.725.725 0 0 1-.387.113M1.63 7.923l10.5 6.618a.02.02 0 0 0 .023 0l10.712-6.767a.022.022 0 0 0 .007-.03.034.034 0 0 0-.007-.006L12.252.974a.021.021 0 0 0-.022 0L1.63 7.887a.022.022 0 0 0-.004.032l.004.004" mask="url(#b)"/>
            </g>
        </g>
    </g>
</svg>
