<svg xmlns="http://www.w3.org/2000/svg" width="36" height="36" viewBox="0 0 36 36">
    <g fill="none" fill-rule="evenodd">
        <circle cx="18" cy="18" r="18" fill="#000"/>
        <path fill="#FFF" d="M9.198 8.73l8.948 10.493-1.005 11.13L9.198 8.73zm9.439 10.58l10.26-4.533-11.281 15.838 1.02-11.306zm-.23-.546L9.089 7.838l15.93 3.523-6.612 7.403zm10.775-4.655l-9.83 4.342 6.18-6.919 3.65 2.577zm.78-.26l-4.222-2.98a.34.34 0 0 0-.12-.053L8.404 7.008a.332.332 0 0 0-.382.438l8.94 24.337a.331.331 0 0 0 .58.078l12.5-17.55a.333.333 0 0 0-.08-.462z"/>
    </g>
</svg>
