<svg xmlns="http://www.w3.org/2000/svg" width="36" height="36" viewBox="0 0 36 36">
    <g fill="none" fill-rule="evenodd">
        <path fill="#212121" d="M-600-464h1920V536H-600z"/>
        <g>
            <circle cx="18" cy="18" r="18" fill="#FFF"/>
            <path fill="#1269AB" d="M7 23.424v3.488l10.81-6.346 10.808 6.346v-3.488L17.81 17.077z"/>
            <path fill="#3FBCED" d="M17.81 6L7.301 12.066l2.856 1.162 7.651-4.417 7.651 4.417 2.857-1.162z"/>
            <path fill="#1269AB" d="M7 24.722l1.881 1.086 2.413-1.417-1.145-.662v-9.766L7 12.683v12.039zm18.46-10.756v9.769l-1.136.656 2.413 1.417 1.881-1.086v-12.04l-3.158 1.284z"/>
            <path fill="#3FBCED" d="M17.81 28.152l-5.842-3.372-2.413 1.417 8.254 4.765 8.254-4.765-2.413-1.417z"/>
        </g>
    </g>
</svg>
