<svg xmlns="http://www.w3.org/2000/svg" xmlns:xlink="http://www.w3.org/1999/xlink" width="36" height="36" viewBox="0 0 36 36">
    <defs>
        <path id="a" d="M0 .641h6.618V14.67H0z"/>
        <path id="c" d="M.19.641H6.81V14.67H.191z"/>
        <path id="e" d="M.382.641H7V14.67H.382z"/>
    </defs>
    <g fill="none" fill-rule="evenodd">
        <path fill="#212121" d="M-1208-388H712V612h-1920z"/>
        <g>
            <circle cx="18" cy="18" r="18" fill="#FFF"/>
            <g transform="translate(4 9.06)">
                <mask id="b" fill="#fff">
                    <use xlink:href="#a"/>
                </mask>
                <path fill="#8225FB" d="M6.618 1.274v3.76l-.755.191c-.878.221-1.542 1.056-1.542 1.944v6.596l-3.498.88c-.452.111-.823-.162-.823-.61V2.938c0-.45.37-.909.823-1.022L5.796.666c.451-.112.822.16.822.608" mask="url(#b)"/>
            </g>
            <path fill="#2CFEDB" d="M15.89 24.588v1.075c0 .449-.37.907-.823 1.021l-4.971 1.25c-.454.113-.825-.16-.825-.608V16.228c0-.448.371-.908.825-1.022l3.645-.917v8.806c0 .903.676 1.584 1.572 1.584.143 0 .289-.018.432-.054l.145-.037z"/>
            <g transform="translate(14.5 9.06)">
                <mask id="d" fill="#fff">
                    <use xlink:href="#c"/>
                </mask>
                <path fill="#8225FB" d="M6.809 1.274v3.76l-.755.191c-.878.221-1.542 1.056-1.542 1.944v6.596l-3.498.88c-.452.111-.823-.162-.823-.61V2.938c0-.45.37-.909.823-1.022L5.987.666c.452-.112.822.16.822.608" mask="url(#d)"/>
            </g>
            <path fill="#2CFEDB" d="M26.58 24.588v1.075c0 .449-.368.907-.822 1.021l-4.971 1.25c-.454.113-.825-.16-.825-.608V16.228c0-.448.371-.908.825-1.022l3.645-.917v8.806c0 .903.676 1.584 1.572 1.584.143 0 .289-.018.432-.054l.145-.037z"/>
            <g transform="translate(25 9.06)">
                <mask id="f" fill="#fff">
                    <use xlink:href="#e"/>
                </mask>
                <path fill="#8225FB" d="M6.177 13.394l-4.972 1.25c-.453.113-.823-.16-.823-.608V2.937c0-.448.37-.907.823-1.02L6.177.667C6.63.552 7 .826 7 1.274v11.098c0 .448-.37.907-.823 1.02" mask="url(#f)"/>
            </g>
        </g>
    </g>
</svg>
