<svg xmlns="http://www.w3.org/2000/svg" xmlns:xlink="http://www.w3.org/1999/xlink" width="36" height="36" viewBox="0 0 36 36">
    <defs>
        <path id="a" d="M0 .292h14.304V11.77H0z"/>
        <path id="c" d="M.344.18h14.872v11.527H.344z"/>
        <path id="e" d="M.298.07h10.824v15.84H.298z"/>
    </defs>
    <g fill="none" fill-rule="evenodd">
        <path fill="#212121" d="M-1284-236H636V764h-1920z"/>
        <g>
            <circle cx="18" cy="18" r="18" fill="#FFF"/>
            <g transform="translate(6 7.294)">
                <mask id="b" fill="#fff">
                    <use xlink:href="#a"/>
                </mask>
                <path fill="#F4A623" d="M8.116 11.108c.05-.028.097-.054.142-.082a5.232 5.232 0 0 0 2.566-4.498v-.014c0-2.558 1.336-4.84 3.48-6.081A24.287 24.287 0 0 0 11.705.29c-3.99 0-7.96.991-11.482 2.867-.165.087-.177.107-.19.13-.027.048-.035.065-.033.151a24.428 24.428 0 0 0 .695 5.08c.81 1.945 2.763 3.25 4.865 3.25.895 0 1.779-.228 2.556-.66" mask="url(#b)"/>
            </g>
            <g transform="translate(7.756 19.001)">
                <mask id="d" fill="#fff">
                    <use xlink:href="#c"/>
                </mask>
                <path fill="#2AB9AC" d="M12.652.926a3.485 3.485 0 0 0-.123-.073L12.48.825A5.253 5.253 0 0 0 9.951.179a5.24 5.24 0 0 0-2.74.768 7.028 7.028 0 0 1-3.408.88A7.036 7.036 0 0 1 .344.907c1.957 4.383 5.2 8.159 9.224 10.712.097.062.163.088.398.088.212 0 .264-.021.369-.087a24.394 24.394 0 0 0 3.8-2.985 5.3 5.3 0 0 0 1.08-3.19 5.294 5.294 0 0 0-2.563-4.52" mask="url(#d)"/>
            </g>
            <g transform="translate(18.293 8.465)">
                <mask id="f" fill="#fff">
                    <use xlink:href="#e"/>
                </mask>
                <path fill="#6CB0DF" d="M11.089 2.116c-.013-.021-.024-.04-.19-.129A24.344 24.344 0 0 0 6.367.131a5.27 5.27 0 0 0-6.07 5.138v.067c.001 1.858.951 3.542 2.542 4.505l.023.014a7.063 7.063 0 0 1 3.58 6.056c2.879-3.966 4.533-8.77 4.68-13.644.002-.086-.005-.101-.033-.15" mask="url(#f)"/>
            </g>
        </g>
    </g>
</svg>
