<svg xmlns="http://www.w3.org/2000/svg" width="36" height="36" viewBox="0 0 36 36">
    <defs>
        <linearGradient id="a" x1="0%" y1="50.001%" y2="50.001%">
            <stop offset="0%" stop-color="#05A0DB"/>
            <stop offset="100%" stop-color="#0589C6"/>
        </linearGradient>
    </defs>
    <g fill="none" fill-rule="evenodd">
        <circle cx="18" cy="18" r="18" fill="#FFF"/>
        <path fill="url(#a)" d="M19.895 6.697c-2.417 1.399-3.212 4.44-1.775 6.793.599.981.268 2.249-.74 2.831-.992.576-2.271.27-2.882-.678v.003a5.006 5.006 0 0 0-1.899-1.827c-2.448-1.347-5.556-.506-6.94 1.877-1.383 2.383-.52 5.408 1.93 6.754 2.45 1.347 5.555.506 6.94-1.878l.023-.043v.003c.589-.962 1.862-1.295 2.868-.741 1.02.56 1.38 1.82.804 2.813-1.385 2.384-.52 5.407 1.929 6.754 2.449 1.347 5.556.506 6.94-1.878.442-.762.655-1.59.659-2.406v-.05c-.009-1.722-.939-3.39-2.589-4.297a5.19 5.19 0 0 0-2.541-.64l.007-.004c-1.183.014-2.154-.91-2.168-2.06-.012-1.136.91-2.069 2.069-2.107l-.003-.002a5.174 5.174 0 0 0 2.574-.696c2.418-1.399 3.213-4.44 1.775-6.793C25.924 6.865 24.23 6 22.494 6c-.886 0-1.782.225-2.599.697"/>
    </g>
</svg>
