<svg xmlns="http://www.w3.org/2000/svg" width="36" height="36" viewBox="0 0 36 36">
    <g fill="none" fill-rule="evenodd">
        <circle cx="18" cy="18" r="18" fill="#F5F7FA"/>
        <path fill="#49C1BF" d="M12.658 5L9 6.605v3.629l9.735 4.679L9 19.689v3.577l14.064 6.731 3.6-1.605V17.177l-3.6 1.623v7.59l-9.552-4.592 9.552-4.861 3.6-1.605v-3.59z"/>
        <path fill="#077A8F" d="M12.658 5L9 6.605l14.064 6.743 3.6-1.606z"/>
        <path fill="#298E97" d="M23.064 13.333v3.588l3.6-1.605v-3.59z"/>
        <path fill="#49C1BF" d="M9 10.238l9.735 4.678L9 19.69v3.578L23.064 30v-3.6L13.512 21.8l9.552-4.86v-3.59L9 6.608z"/>
        <path fill="#298E97" d="M23.064 18.776v11.197l3.6-1.605V17.154z"/>
    </g>
</svg>
