<svg xmlns="http://www.w3.org/2000/svg" width="42" height="42" viewBox="0 0 42 42">
    <g fill="none" fill-rule="evenodd">
        <path stroke="#FFF" stroke-width="2" d="M41 21C41 9.954 32.046 1 21 1S1 9.954 1 21s8.954 20 20 20 20-8.954 20-20z"/>
        <path stroke="#FFF" stroke-width="2" d="M32.482 19.835a11.534 11.534 0 0 0-7.536-9.679 11.534 11.534 0 0 0-13.028 3.725l18.164 14.238"/>
        <path fill="#FFF" d="M35.458 16.379l-3.082 3.367-3.369-3.133.122 2.759 3.368 3.132 3.082-3.366z"/>
        <path stroke="#FFF" stroke-width="2" d="M9.518 22.165a11.534 11.534 0 0 0 7.536 9.679c4.815 1.752 10.04.1 13.028-3.725L12.023 13.886"/>
        <path fill="#FFF" d="M6.542 25.621l3.082-3.367 3.369 3.133-.122-2.759-3.368-3.132-3.082 3.366z"/>
    </g>
</svg>
