<svg xmlns="http://www.w3.org/2000/svg" width="42" height="42" viewBox="0 0 42 42">
    <g fill="none" fill-rule="evenodd">
        <path stroke="#FFF" stroke-width="2" d="M41 21C41 9.954 32.046 1 21 1S1 9.954 1 21s8.954 20 20 20 20-8.954 20-20z"/>
        <path stroke="#FFF" stroke-width="2" d="M31.899 24.796a11.534 11.534 0 0 0-2.74-11.956 11.534 11.534 0 0 0-13.381-2.13"/>
        <path fill="#FFF" d="M36.056 22.922l-4.216 1.75-1.729-4.264-1.055 2.552 1.728 4.262L35 25.474z"/>
        <path stroke="#FFF" stroke-width="2" d="M10.101 17.204a11.534 11.534 0 0 0 2.74 11.956 11.534 11.534 0 0 0 13.381 2.13"/>
        <path fill="#FFF" d="M5.944 19.078l4.216-1.75 1.729 4.264 1.055-2.552-1.728-4.262L7 16.526z"/>
    </g>
</svg>
