<svg xmlns="http://www.w3.org/2000/svg" width="42" height="42" viewBox="0 0 42 42">
    <g fill="none" fill-rule="evenodd" stroke="#FFF" stroke-width="2">
        <path d="M41 21c0 11.048-8.952 20-20 20S1 32.048 1 21 9.952 1 21 1v20h20zM21 38.28v-5.457M9.177 21H3.72M35.96 12.36l-4.72 2.729M10.76 26.912L6.04 29.64"/>
        <path d="M26.911 31.24l2.73 4.72v.01M15.089 10.76l-2.73-4.72M29.64 6.04l-2.73 4.72M12.36 35.97v-.01l2.73-4.72M35.96 29.64l-4.72-2.728M10.76 15.088L6.04 12.36"/>
    </g>
</svg>
