<svg xmlns="http://www.w3.org/2000/svg" width="39" height="42" viewBox="0 0 39 42">
    <g fill="none" fill-rule="evenodd" stroke="#FFF" stroke-width="2">
        <path d="M18.524 19.346V4.212A3.221 3.221 0 0 0 15.314 1 3.222 3.222 0 0 0 12.1 4.212v23.213l-5.323-6.677a3.243 3.243 0 0 0-5.14 3.953L13.712 41M24.948 22.265v-7.294a3.22 3.22 0 0 0-3.212-3.21 3.22 3.22 0 0 0-3.212 3.21v7.294M31.371 22.265v-6.097a3.222 3.222 0 0 0-3.212-3.212 3.221 3.221 0 0 0-3.21 3.212v6.097M37.794 41V18.263a3.22 3.22 0 0 0-3.211-3.211 3.22 3.22 0 0 0-3.212 3.21v4.004"/>
    </g>
</svg>
