<svg xmlns="http://www.w3.org/2000/svg" width="36" height="36" viewBox="0 0 36 36">
    <g fill="none" fill-rule="evenodd">
        <circle cx="18" cy="18" r="18" fill="#232323"/>
        <g fill="#DE3F6B">
            <path d="M10.616 12h1.069c1.669.164 3.213 1.003 4.357 2.212 2.374 2.491 3.68 6.006 6.7 7.86 2.184 1.342 5.24.245 6.313-2.02a69.02 69.02 0 0 1 1.64-.008c-.75 2.301-2.94 3.955-5.334 4.176h-.882c-1.474-.122-2.907-.69-4.022-1.67-1.62-1.372-2.66-3.255-3.918-4.932-1.082-1.482-2.187-3.148-3.978-3.822-2.213-.829-4.917.468-5.723 2.673-.71 1.815-.132 4.067 1.454 5.229 1.188.92 2.844 1.263 4.271.728 1.586-.572 2.764-1.872 3.666-3.25.357.51.702 1.027 1.046 1.547-1.404 1.768-3.352 3.286-5.668 3.497h-.95C7.738 24.017 5.2 21.537 5 18.606v-.959c.19-2.925 2.694-5.434 5.616-5.647"/>
            <path d="M24.42 12h.886c2.946.192 5.452 2.722 5.694 5.652v1.503c-2.431.023-4.865.008-7.296.01.003-.439.003-.876 0-1.315 1.922-.005 3.84.008 5.76-.005-.136-.778-.313-1.573-.773-2.231-1.123-1.716-3.497-2.418-5.395-1.675-1.513.562-2.652 1.792-3.53 3.105a63.676 63.676 0 0 1-.999-1.474c1.386-1.794 3.32-3.347 5.652-3.57"/>
        </g>
    </g>
</svg>
