<svg xmlns="http://www.w3.org/2000/svg" width="135" height="135" viewBox="0 0 135 135">
    <g fill="none" fill-rule="evenodd" stroke="#FFF" stroke-linecap="round" stroke-linejoin="round" stroke-width="2">
        <path d="M44.56 44.56l-23.894 4.104M112.986 32.808l-56.525 9.708M52.225 81.257c0 10.801-8.756 19.556-19.556 19.556s-19.555-8.755-19.555-19.556h39.111z"/>
        <path d="M13.113 81.257L32.67 46.601l19.555 34.656M85.668 69.455h36.112c0 10.8-8.756 19.556-19.555 19.556"/>
        <path d="M85.668 69.455L102.225 34.8l19.555 34.656"/>
        <path d="M133.393 67.447c0-36.422-29.525-65.947-65.945-65.947C31.026 1.5 1.5 31.025 1.5 67.447c0 36.421 29.526 65.947 65.948 65.947 36.42 0 65.945-29.526 65.945-65.947zM114.078 114.079L20.815 20.816M48.47 116.402h37.953M67.447 116.402V81.01"/>
    </g>
</svg>
