<svg xmlns="http://www.w3.org/2000/svg" width="124" height="124" viewBox="0 0 124 124">
    <g fill="none" fill-rule="evenodd" stroke="#FFF" stroke-linecap="round" stroke-linejoin="round" stroke-width="2">
        <path d="M15.31 39.461l23.165-9.6M15.845 25.929l13.288-5.344M93.56 84.79l-9.08 21.77M103.81 95.03l-5.55 12.73M57.71 59.39l-30.06 8.17-12.7 3.45L1.5 74.67"/>
        <path d="M24.382 92.421l3.268-24.86L12.834 49.93M12.93 85.192l2.016-14.18L6.03 59.806M32.4 14.85C41.94 6.52 54.43 1.5 68.1 1.5c30.08 0 54.46 24.38 54.46 54.46 0 13.67-5.02 26.16-13.34 35.71M60.14 51.37a8.824 8.824 0 0 0-2.6 6.27 8.873 8.873 0 0 0 8.88 8.88c2.45 0 4.66-.99 6.27-2.6"/>
        <path d="M42.96 25.41a39.335 39.335 0 0 1 25.14-9.02c21.85 0 39.57 17.72 39.57 39.57a39.34 39.34 0 0 1-9.02 25.14M116.99 108.216L15.846 7.07M49.74 122.56l3.77-14.25 3.69-13.98 7.4-28"/>
        <path d="M76.202 108.613L57.204 94.329l-23.575 3.038M64.92 116.62l-11.41-8.307-14.026 1.588"/>
    </g>
</svg>
