<svg xmlns="http://www.w3.org/2000/svg" xmlns:xlink="http://www.w3.org/1999/xlink" width="36" height="36" viewBox="0 0 36 36">
    <defs>
        <path id="a" d="M0 0h22.578v20.74H0z"/>
    </defs>
    <g fill="none" fill-rule="evenodd">
        <path fill="#212121" d="M-752-312h1920V688H-752z"/>
        <g>
            <circle cx="18" cy="18" r="18" fill="#EA3F7E"/>
            <g transform="translate(6 8)">
                <mask id="b" fill="#fff">
                    <use xlink:href="#a"/>
                </mask>
                <path fill="#FFF" d="M14.124 8.697H9.631V3.326h4.493c2.31 0 3.463.902 3.463 2.685 0 1.784-1.154 2.686-3.463 2.686m7.241 2.893c-.787-.865-1.92-1.405-3.4-1.622v-.031c1.296-.21 2.314-.74 3.007-1.591A4.655 4.655 0 0 0 22.05 5.34c0-1.827-.589-3.068-1.806-4.043C19.028.32 17.2 0 14.724 0H5.37v8.703H0v3.334h14.66c1.153 0 2.02.08 2.591.542.573.46.866 1.057.866 1.939 0 .88-.289 1.633-.866 2.106-.575.47-1.442.783-2.592.783H9.631v-2.593H5.372v5.926h9.657c2.456 0 4.334-.641 5.636-1.637 1.301-.996 1.913-2.47 1.913-4.274a4.76 4.76 0 0 0-1.213-3.24" mask="url(#b)"/>
            </g>
        </g>
    </g>
</svg>
