<svg xmlns="http://www.w3.org/2000/svg" width="36" height="36" viewBox="0 0 36 36">
    <g fill="none" fill-rule="evenodd">
        <circle cx="18" cy="18" r="18" fill="#000"/>
        <g fill="#F3BA2F">
            <path d="M18 4l-8.602 8.602 3.164 3.164L18 10.328l5.44 5.44 3.164-3.164L18.001 4h-.002zM4 18l3.164 3.163L10.328 18l-3.163-3.164L4 18zM25.672 18l3.164 3.164L32.001 18l-3.164-3.164-3.165 3.164zM18 25.671l-5.438-5.437-3.169 3.16.005.004L18 32l8.604-8.605.002-.002-3.166-3.161-5.44 5.44z"/>
            <path d="M21.21 17.998L18 14.788l-2.373 2.372-.273.273-.562.562-.004.004.004.005L18 21.212l3.21-3.21.002-.003z"/>
        </g>
    </g>
</svg>
