<svg xmlns="http://www.w3.org/2000/svg" xmlns:xlink="http://www.w3.org/1999/xlink" width="36" height="36" viewBox="0 0 36 36">
    <defs>
        <path id="a" d="M0 0h30v22.908H0z"/>
    </defs>
    <g fill="none" fill-rule="evenodd">
        <path fill="#212121" d="M-904-236h1920V764H-904z"/>
        <g>
            <circle cx="18" cy="18" r="18" fill="#F5F7FA"/>
            <g transform="translate(3 6)">
                <mask id="b" fill="#fff">
                    <use xlink:href="#a"/>
                </mask>
                <path fill="#56428C" d="M22.169 6.823c.334 0 1.002-.004 1.341-.004.475.822.904 1.679 1.121 2.613 1.713-.084 3.434.087 5.134-.133-.033-.104-.09-.314-.123-.419-1.59-1.401-2.35-3.423-3.452-5.174h-4.021v3.117zm-.582 12.766c-1.19.004-2.383.008-3.57.004.099 1.514-1.053 2.39-2.038 3.315h7.686c-1.043-.89-2.105-1.82-2.078-3.32zm-8.848-3.504h5.137v-3.059H12.74v3.059zm11.933-2.61c-.307.9-.69 1.765-1.125 2.614-.592-.004-1.184-.004-1.77-.004.013-4.478-.024-8.962.004-13.44-.069-1 .632-1.792 1.044-2.645h-5.98c.774 1.091 1.136 2.363 1.113 3.692-1.767.019-3.538.019-5.305 0-.027-1.338.41-2.573 1.124-3.692H7.841a6.373 6.373 0 0 1 1.11 3.692 476.62 476.62 0 0 1-4.514.014C2.973 6.293 1.441 8.85 0 11.45v.005c1.437 2.605 2.965 5.161 4.437 7.748h4.036v-3.117h-1.32c-.895-1.542-1.784-3.086-2.671-4.63l2.667-4.632h10.727v3.059h-5.138V7.214H8.865c-.014 4.334.031 8.668-.014 12.999.14 1.271-1.197 1.828-1.861 2.695h7.633c-1.18-.94-2.196-2.062-1.984-3.693 4.523-.027 9.042-.003 13.56-.012 1.14-1.932 2.052-4.052 3.801-5.544-1.767-.233-3.552-.14-5.328-.184z" mask="url(#b)"/>
            </g>
        </g>
    </g>
</svg>
