<svg xmlns="http://www.w3.org/2000/svg" width="36" height="36" viewBox="0 0 36 36">
    <g fill="none" fill-rule="evenodd">
        <circle cx="18" cy="18" r="18" fill="#E7F9F2"/>
        <g fill="#5CC2C7">
            <path d="M12.018 18a5.982 5.982 0 0 1 9.16-5.07l2.665-2.664A9.648 9.648 0 0 0 18 8.307c-5.353 0-9.693 4.34-9.693 9.693 0 2.194.729 4.218 1.959 5.843l2.664-2.665A5.96 5.96 0 0 1 12.018 18m13.716-5.843l-2.665 2.665a5.983 5.983 0 0 1-8.247 8.247l-2.665 2.665A9.65 9.65 0 0 0 18 27.693c5.354 0 9.693-4.34 9.693-9.693a9.645 9.645 0 0 0-1.96-5.843M10.131 25.869A2.42 2.42 0 1 0 6.71 29.29a2.42 2.42 0 0 0 3.422-3.422M29.291 6.709a2.42 2.42 0 1 0-3.422 3.422A2.42 2.42 0 0 0 29.29 6.71"/>
        </g>
    </g>
</svg>
