<svg xmlns="http://www.w3.org/2000/svg" width="50" height="29" viewBox="0 0 50 29">
    <g fill="none" fill-rule="evenodd">
        <path fill="#8D31E5" d="M4.167 29L0 21.75 12.5 0h8.334L25 7.25 29.166 0H37.5L50 21.75 45.833 29H37.5l-4.167-7.25L29.167 29h-8.334l-4.166-7.25L12.5 29z"/>
        <path fill="#BE52F7" d="M33.311 7.25h8.328l-4.164 7.25h-8.328l-4.164 7.25h-8.327l4.164-7.25 4.163-7.25L29.147 0h8.328l-4.164 7.25zM12.491 0l4.165 7.25-4.164 7.25-4.164 7.25L4.164 29 0 21.75l4.164-7.25 4.164-7.25L12.492 0z"/>
        <path fill="#5F89FF" d="M37.504 0l4.165 7.25h-8.33L37.503 0zm8.33 14.5L50 21.75 45.835 29l-4.166-7.25-4.165-7.25 4.165-7.25 4.166 7.25zm-16.66 0l4.164 7.25L29.173 29l-4.166-7.25 4.166-7.25zM16.676 7.25h8.33l-4.165 7.25-4.165 7.25L12.512 29H4.18l4.165-7.25 4.166-7.25 4.165-7.25z"/>
    </g>
</svg>
