<svg xmlns="http://www.w3.org/2000/svg" xmlns:xlink="http://www.w3.org/1999/xlink" width="36" height="36" viewBox="0 0 36 36">
    <defs>
        <path id="a" d="M0 .182h4.318V4.5H0z"/>
        <path id="c" d="M.523.637H26.25V13.5H.523z"/>
    </defs>
    <g fill="none" fill-rule="evenodd">
        <path fill="#212121" d="M-600-388h1920V612H-600z"/>
        <g>
            <circle cx="18" cy="18" r="18" fill="#FFF"/>
            <g transform="translate(3 20.114)">
                <mask id="b" fill="#fff">
                    <use xlink:href="#a"/>
                </mask>
                <path fill="#4A90E2" d="M2.16.182a2.158 2.158 0 1 1 0 4.317 2.158 2.158 0 0 1 0-4.317" mask="url(#b)"/>
            </g>
            <g transform="translate(6.75 11.114)">
                <mask id="d" fill="#fff">
                    <use xlink:href="#c"/>
                </mask>
                <path fill="#4A90E2" d="M11.453 4.955h-.18c-1.889 0-2.16-.45-2.16-2.16a2.16 2.16 0 0 0-4.318 0c0 1.71-.27 2.114-2.158 2.114h-.18c-1.08.09-1.934.99-1.934 2.114a2.16 2.16 0 0 0 2.159 2.16c1.124 0 2.068-.9 2.114-1.98v-.135c0-1.574.494-2.159 2.158-2.159 1.665 0 2.16.585 2.16 2.114a2.16 2.16 0 0 0 2.159 2.16 2.132 2.132 0 0 0 2.158-2.16 2.177 2.177 0 0 0-1.978-2.068M24.136.636a2.16 2.16 0 0 0-2.16 2.16c0 1.709-.27 2.159-2.158 2.159h-.18c-1.079.09-1.934.989-1.934 2.113v.045c0 1.665-.315 2.07-2.158 2.07-.091 0-.181 0-.226.044-1.079.135-1.934 1.035-1.934 2.114a2.16 2.16 0 0 0 2.16 2.16c1.123 0 2.068-.902 2.113-1.98v-.18c0-1.53.494-2.114 2.114-2.159h.045c1.124 0 2.069-.9 2.114-2.024v-.135c0-1.575.494-2.159 2.16-2.159a2.16 2.16 0 0 0 2.158-2.159c0-1.124-.945-2.069-2.114-2.069" mask="url(#d)"/>
            </g>
        </g>
    </g>
</svg>
