<svg xmlns="http://www.w3.org/2000/svg" width="36" height="36" viewBox="0 0 36 36">
    <g fill="none" fill-rule="evenodd">
        <circle cx="18" cy="18" r="18" fill="#1A53F0"/>
        <path fill="#FFF" d="M15.834 11.807a4.043 4.043 0 0 1-4.037 4.048 4.042 4.042 0 0 1-4.036-4.048 4.042 4.042 0 0 1 4.036-4.048 4.046 4.046 0 0 1 4.039 4.048h-.002zM11.797 6a5.798 5.798 0 0 0-5.68 4.655 5.816 5.816 0 0 0 3.421 6.507 5.807 5.807 0 0 0 7.601-3.105 5.804 5.804 0 0 0-1.195-6.3h1.642V6h-5.79zm12.366 9.857a4.043 4.043 0 0 1-4.037-4.048 4.04 4.04 0 0 1 4.037-4.048 4.042 4.042 0 0 1 4.037 4.048 4.05 4.05 0 0 1-4.037 4.048zm0-9.857c-3.198 0-5.79 2.6-5.79 5.807 0 3.207 2.592 5.807 5.79 5.807 3.197 0 5.79-2.6 5.79-5.807C29.953 8.6 27.361 6 24.163 6zM11.797 28.243a4.042 4.042 0 0 1-4.036-4.047 4.043 4.043 0 0 1 4.036-4.049 4.043 4.043 0 0 1 4.037 4.049 4.048 4.048 0 0 1-4.037 4.047zm0-9.856c-3.198 0-5.79 2.6-5.79 5.806C6.007 27.4 8.6 30 11.797 30s5.79-2.6 5.79-5.807c0-3.206-2.592-5.806-5.79-5.806z"/>
    </g>
</svg>
