<svg xmlns="http://www.w3.org/2000/svg" width="36" height="36" viewBox="0 0 36 36">
    <g fill="none" fill-rule="evenodd">
        <path fill="#212121" d="M-980-312H940V688H-980z"/>
        <g>
            <circle cx="18" cy="18" r="18" fill="#32A4BF"/>
            <path fill="#FFF" d="M8 9.27l3.182 3.182 12.882 12.881c-3.51 3.51-9.171 3.555-12.738.137a2.217 2.217 0 0 1-.144-.137 9.505 9.505 0 0 1-.436-.471C8.316 22.137 8 19.899 8 16.965V9.27zm17.05 2.868c2.43 2.725 2.745 4.962 2.745 7.898v7.695l-3.182-3.183-12.882-12.881c3.51-3.51 9.172-3.554 12.739-.137.046.04.093.085.143.137.153.152.297.31.436.471z"/>
        </g>
    </g>
</svg>
