<svg xmlns="http://www.w3.org/2000/svg" width="36" height="36" viewBox="0 0 36 36">
    <g fill="none" fill-rule="evenodd">
        <path fill="#212121" d="M-1284-388H636V612h-1920z"/>
        <g>
            <circle cx="18" cy="18" r="18" fill="#5B6DEE"/>
            <path fill="#FFF" d="M14.42 18.909c-3.809 0-6.42 1.554-6.42 4.773 0 3.218 2.175 4.772 5.35 4.772 5.185 0 9.54-3.956 10.105-9.181-.687.123-1.383.182-2.08.178-2.812 0-4.143-.542-6.955-.542m.206-1.906a11.432 11.432 0 0 0-2.081.179C13.11 11.956 17.465 8 22.65 8 25.825 8 28 9.555 28 12.773s-2.611 4.773-6.42 4.773c-2.811-.001-4.142-.543-6.954-.543"/>
        </g>
    </g>
</svg>
