<svg xmlns="http://www.w3.org/2000/svg" width="36" height="36" viewBox="0 0 36 36">
    <g fill="none" fill-rule="evenodd">
        <circle cx="18" cy="18" r="18" fill="#26A17B"/>
        <path fill="#FFF" d="M20.333 19.441v-.002c-.155.01-.953.057-2.728.057-1.42 0-2.419-.04-2.77-.058v.004c-5.463-.242-9.54-1.193-9.54-2.331s4.078-2.088 9.54-2.33v3.714c.357.024 1.38.085 2.793.085 1.696 0 2.55-.071 2.706-.085V14.78c5.451.243 9.52 1.195 9.52 2.33 0 1.134-4.07 2.086-9.52 2.33m-.003-5.045v-3.327h7.607V6H7.224v5.068h7.608v3.324C8.649 14.676 4 15.901 4 17.368s4.651 2.691 10.832 2.977V31h5.5V20.344c6.172-.285 10.812-1.509 10.812-2.974 0-1.466-4.64-2.69-10.811-2.974"/>
    </g>
</svg>
