<svg xmlns="http://www.w3.org/2000/svg" xmlns:xlink="http://www.w3.org/1999/xlink" width="36" height="36" viewBox="0 0 36 36">
    <defs>
        <path id="a" d="M.05 0h11.16v14.293H.05z"/>
        <path id="c" d="M.123.065h2.914V4.8H.123z"/>
    </defs>
    <g fill="none" fill-rule="evenodd">
        <path fill="#212121" d="M-904-464h1920V536H-904z"/>
        <g>
            <circle cx="18" cy="18" r="18" fill="#FFF"/>
            <path fill="#5A6971" d="M18.496 22.546s1.838 1.812 1.85 3.56c2.428-2.802.251-6.522.251-6.522l-2.1 2.962zM13.008 19.377s-2.488-.686-4.008.179c1.213-3.505 5.523-3.48 5.523-3.48l-1.515 3.301z"/>
            <path fill="#ED8117" d="M17.137 22.933l-1.892-1.093-1.892-1.093-1.069 2.18c-.384.784-.362 1.653.001 2.277.321.55.89.879 1.527.881.72.003 1.485-.412 1.972-1.137l1.353-2.015z"/>
            <path fill="#EEBB18" d="M16.551 22.595l-1.306-.755-1.307-.754-.697 1.435c-.251.516-.224 1.095.033 1.515.227.371.62.598 1.054.609.492.012 1.007-.253 1.329-.729l.894-1.321z"/>
            <path fill="#DCF2F9" d="M22.503 9.27s-4.913.287-6.518 3.536c-1.178 2.385-2.422 5.332-3 6.73a.996.996 0 0 0 .423 1.244l1.837 1.06 1.837 1.06c.433.25.984.141 1.288-.255.922-1.2 2.852-3.75 4.329-5.963 2.01-3.015-.196-7.412-.196-7.412"/>
            <g transform="translate(12.6 9)">
                <mask id="b" fill="#fff">
                    <use xlink:href="#a"/>
                </mask>
                <path fill="#5A6971" d="M9.744.545c-.873.09-4.774.64-6.125 3.376C2.46 6.265 1.246 9.134.626 10.635a.74.74 0 0 0 .312.92l3.673 2.12a.74.74 0 0 0 .953-.189c.99-1.288 2.868-3.775 4.318-5.949 1.696-2.542.22-6.193-.138-6.992M4.978 14.293c-.214 0-.43-.055-.626-.167l-3.674-2.12a1.26 1.26 0 0 1-.533-1.57C.768 8.93 1.987 6.048 3.152 3.69 4.805.345 9.681.022 9.887.01l.171-.01.077.153c.093.185 2.25 4.569.18 7.673-1.459 2.187-3.344 4.684-4.338 5.977a1.26 1.26 0 0 1-.999.49" mask="url(#b)"/>
            </g>
            <path fill="#FFF" d="M21.077 15.588a1.925 1.925 0 1 0-3.335-1.925 1.925 1.925 0 0 0 3.335 1.925"/>
            <path fill="#5A6971" d="M19.413 12.96c-.145 0-.29.02-.434.058a1.667 1.667 0 0 0-.401 3.05 1.667 1.667 0 0 0 2.44-1.873 1.653 1.653 0 0 0-.776-1.01 1.653 1.653 0 0 0-.83-.224m-.005 3.85c-.371 0-.746-.094-1.09-.292a2.188 2.188 0 0 1-.8-2.985 2.17 2.17 0 0 1 1.327-1.019 2.17 2.17 0 0 1 1.658.219c.506.291.868.763 1.018 1.326a2.185 2.185 0 0 1-2.114 2.75"/>
            <g transform="translate(10.2 28.2)">
                <mask id="d" fill="#fff">
                    <use xlink:href="#c"/>
                </mask>
                <path fill="#989898" d="M.394 4.8l-.27-.156L2.766.065l.27.157z" mask="url(#d)"/>
            </g>
            <path fill="#989898" d="M10.266 31.169l-.27-.156 1.526-2.643.27.156z"/>
        </g>
    </g>
</svg>
