<svg xmlns="http://www.w3.org/2000/svg" width="37" height="38" viewBox="0 0 37 38">
    <g fill="none" fill-rule="evenodd">
        <circle cx="18" cy="19" r="18" fill="#D8D8D8"/>
        <g fill="#1D2227">
            <path d="M12.01 28.684a259.578 259.578 0 0 1-5.463 4.192C2.547 29.563 0 24.561 0 18.963c0-3.193.829-6.193 2.285-8.796l8.34 10.55-2.951 3.163s1.272 3.556 4.335 4.804M8.27 12.766a258.597 258.597 0 0 1-4.104-5.338A18.043 18.043 0 0 1 18.073.902c3.197 0 6.2.83 8.807 2.288l-10.52 8.305-3.283-3.063S9.519 9.703 8.27 12.766M27.925 25.162a248.761 248.761 0 0 1 4.08 5.306 18.04 18.04 0 0 1-13.933 6.557c-3.185 0-6.179-.823-8.777-2.27l10.54-8.322 3.283 3.062s3.559-1.271 4.807-4.333M36.145 18.963c0 3.18-.822 6.166-2.264 8.76L25.57 17.212l2.953-3.164s-1.272-3.556-4.336-4.804c1.84-1.46 3.908-3.029 5.436-4.171 3.985 3.312 6.522 8.305 6.522 13.89"/>
        </g>
    </g>
</svg>
